<svg width="16" height="14" viewBox="0 0 16 14" fill="none" xmlns="http://www.w3.org/2000/svg">
<path d="M1.29032 6.16002H2.58065V9.52001H1.80645C1.60112 9.52001 1.4042 9.60851 1.25901 9.76604C1.11382 9.92357 1.03226 10.1372 1.03226 10.36C1.03226 10.5828 1.11382 10.7964 1.25901 10.954C1.4042 11.1115 1.60112 11.2 1.80645 11.2H14.1935C14.3989 11.2 14.5958 11.1115 14.741 10.954C14.8862 10.7964 14.9677 10.5828 14.9677 10.36C14.9677 10.1372 14.8862 9.92357 14.741 9.76604C14.5958 9.60851 14.3989 9.52001 14.1935 9.52001H13.4194V6.16002H14.7097C14.8783 6.16004 15.0422 6.10036 15.1767 5.99004C15.3111 5.87973 15.4087 5.72481 15.4547 5.54882C15.5006 5.37283 15.4923 5.1854 15.4311 5.01498C15.3699 4.84456 15.2591 4.70048 15.1155 4.60463L8.40581 0.124643C8.28377 0.0431488 8.14329 0 8 0C7.85671 0 7.71622 0.0431488 7.59419 0.124643L0.884516 4.60463C0.740947 4.70048 0.630137 4.84456 0.568919 5.01498C0.507701 5.1854 0.499421 5.37283 0.545336 5.54882C0.591252 5.72481 0.688854 5.87973 0.823315 5.99004C0.957776 6.10036 1.12175 6.16004 1.29032 6.16002ZM4.12903 6.16002H5.67742V9.52001H4.12903V6.16002ZM8.77419 6.16002V9.52001H7.22581V6.16002H8.77419ZM11.871 9.52001H10.3226V6.16002H11.871V9.52001ZM8 1.82634L11.9742 4.48003H4.02581L8 1.82634ZM16 13.16C16 13.3828 15.9184 13.5964 15.7732 13.754C15.6281 13.9115 15.4311 14 15.2258 14H0.774194C0.568865 14 0.371945 13.9115 0.226756 13.754C0.0815666 13.5964 0 13.3828 0 13.16C0 12.9372 0.0815666 12.7236 0.226756 12.566C0.371945 12.4085 0.568865 12.32 0.774194 12.32H15.2258C15.4311 12.32 15.6281 12.4085 15.7732 12.566C15.9184 12.7236 16 12.9372 16 13.16Z" fill="#1C1C1C"/>
</svg>
