<svg width="20" height="17" viewBox="0 0 20 17" fill="none" xmlns="http://www.w3.org/2000/svg">
<path fill-rule="evenodd" clip-rule="evenodd" d="M3 2.5C2.73478 2.5 2.48043 2.60536 2.29289 2.79289C2.10536 2.98043 2 3.23478 2 3.5V13.5C2 13.7652 2.10536 14.0196 2.29289 14.2071C2.48043 14.3946 2.73478 14.5 3 14.5H10.17C10.3766 13.9145 10.7597 13.4074 11.2666 13.0488C11.7735 12.6901 12.3791 12.4975 13 12.4975C13.6209 12.4975 14.2265 12.6901 14.7334 13.0488C15.2403 13.4074 15.6234 13.9145 15.83 14.5H17C17.2652 14.5 17.5196 14.3946 17.7071 14.2071C17.8946 14.0196 18 13.7652 18 13.5V3.5C18 3.23478 17.8946 2.98043 17.7071 2.79289C17.5196 2.60536 17.2652 2.5 17 2.5H15.83C15.6234 3.08553 15.2403 3.59257 14.7334 3.95121C14.2265 4.30985 13.6209 4.50245 13 4.50245C12.3791 4.50245 11.7735 4.30985 11.2666 3.95121C10.7597 3.59257 10.3766 3.08553 10.17 2.5H3ZM0 3.5C0 2.70435 0.316071 1.94129 0.87868 1.37868C1.44129 0.816071 2.20435 0.5 3 0.5H11C11.2652 0.5 11.5196 0.605357 11.7071 0.792893C11.8946 0.98043 12 1.23478 12 1.5C12 1.76522 12.1054 2.01957 12.2929 2.20711C12.4804 2.39464 12.7348 2.5 13 2.5C13.2652 2.5 13.5196 2.39464 13.7071 2.20711C13.8946 2.01957 14 1.76522 14 1.5C14 1.23478 14.1054 0.98043 14.2929 0.792893C14.4804 0.605357 14.7348 0.5 15 0.5H17C17.7956 0.5 18.5587 0.816071 19.1213 1.37868C19.6839 1.94129 20 2.70435 20 3.5V13.5C20 14.2956 19.6839 15.0587 19.1213 15.6213C18.5587 16.1839 17.7956 16.5 17 16.5H15C14.7348 16.5 14.4804 16.3946 14.2929 16.2071C14.1054 16.0196 14 15.7652 14 15.5C14 15.2348 13.8946 14.9804 13.7071 14.7929C13.5196 14.6054 13.2652 14.5 13 14.5C12.7348 14.5 12.4804 14.6054 12.2929 14.7929C12.1054 14.9804 12 15.2348 12 15.5C12 15.7652 11.8946 16.0196 11.7071 16.2071C11.5196 16.3946 11.2652 16.5 11 16.5H3C2.20435 16.5 1.44129 16.1839 0.87868 15.6213C0.316071 15.0587 0 14.2956 0 13.5V3.5ZM13 5.5C13.2652 5.5 13.5196 5.60536 13.7071 5.79289C13.8946 5.98043 14 6.23478 14 6.5V7C14 7.26522 13.8946 7.51957 13.7071 7.70711C13.5196 7.89464 13.2652 8 13 8C12.7348 8 12.4804 7.89464 12.2929 7.70711C12.1054 7.51957 12 7.26522 12 7V6.5C12 6.23478 12.1054 5.98043 12.2929 5.79289C12.4804 5.60536 12.7348 5.5 13 5.5ZM14 10C14 9.73478 13.8946 9.48043 13.7071 9.29289C13.5196 9.10536 13.2652 9 13 9C12.7348 9 12.4804 9.10536 12.2929 9.29289C12.1054 9.48043 12 9.73478 12 10V10.5C12 10.7652 12.1054 11.0196 12.2929 11.2071C12.4804 11.3946 12.7348 11.5 13 11.5C13.2652 11.5 13.5196 11.3946 13.7071 11.2071C13.8946 11.0196 14 10.7652 14 10.5V10Z" fill="#545454"/>
</svg>
