<svg width="135" height="40" viewBox="0 0 135 40" fill="none" xmlns="http://www.w3.org/2000/svg">
<rect width="40" height="40" rx="20" fill="black"/>
<path d="M15.916 29.436C15.276 29.436 14.796 29.26 14.476 28.908C14.156 28.556 13.996 28.196 13.996 27.828C13.996 27.396 14.076 27.068 14.236 26.844C14.396 26.62 14.708 26.452 15.172 26.34C15.78 26.212 16.412 26.052 17.068 25.86C17.74 25.668 18.38 25.468 18.988 25.26C19.612 25.036 20.156 24.812 20.62 24.588C21.084 24.348 21.42 24.124 21.628 23.916C21.372 23.772 20.964 23.604 20.404 23.412C19.844 23.204 19.22 22.964 18.532 22.692C17.86 22.404 17.212 22.068 16.588 21.684C15.964 21.3 15.452 20.852 15.052 20.34C14.652 19.828 14.452 19.244 14.452 18.588C14.452 17.676 14.684 16.82 15.148 16.02C15.612 15.22 16.228 14.476 16.996 13.788C17.764 13.1 18.596 12.468 19.492 11.892C20.404 11.316 21.308 10.796 22.204 10.332C23.116 9.852 23.932 9.428 24.652 9.06C24.924 8.9 25.18 8.796 25.42 8.748C25.676 8.684 25.908 8.652 26.116 8.652C26.836 8.652 27.332 8.828 27.604 9.18C27.876 9.532 28.012 9.892 28.012 10.26C28.012 10.516 27.892 10.82 27.652 11.172C27.412 11.508 27.028 11.82 26.5 12.108C25.988 12.396 25.308 12.604 24.46 12.732C24.316 12.748 24.188 12.764 24.076 12.78C23.436 13.1 22.748 13.484 22.012 13.932C21.276 14.38 20.58 14.852 19.924 15.348C19.284 15.828 18.756 16.308 18.34 16.788C17.924 17.268 17.716 17.7 17.716 18.084C17.716 18.516 17.892 18.908 18.244 19.26C18.596 19.596 19.044 19.908 19.588 20.196C20.148 20.468 20.732 20.732 21.34 20.988C21.964 21.244 22.548 21.508 23.092 21.78C23.652 22.036 24.108 22.324 24.46 22.644C24.812 22.964 24.988 23.324 24.988 23.724C24.988 24.268 24.804 24.788 24.436 25.284C24.068 25.78 23.588 26.244 22.996 26.676C22.404 27.092 21.756 27.468 21.052 27.804C20.348 28.14 19.652 28.428 18.964 28.668C18.292 28.924 17.684 29.116 17.14 29.244C16.596 29.372 16.188 29.436 15.916 29.436Z" fill="white"/>
<path d="M51.68 27.78C51.1467 27.78 50.7467 27.6333 50.48 27.34C50.2133 27.0467 50.08 26.7467 50.08 26.44C50.08 26.08 50.1467 25.8067 50.28 25.62C50.4133 25.4333 50.6733 25.2933 51.06 25.2C51.5667 25.0933 52.0933 24.96 52.64 24.8C53.2 24.64 53.7333 24.4733 54.24 24.3C54.76 24.1133 55.2133 23.9267 55.6 23.74C55.9867 23.54 56.2667 23.3533 56.44 23.18C56.2267 23.06 55.8867 22.92 55.42 22.76C54.9533 22.5867 54.4333 22.3867 53.86 22.16C53.3 21.92 52.76 21.64 52.24 21.32C51.72 21 51.2933 20.6267 50.96 20.2C50.6267 19.7733 50.46 19.2867 50.46 18.74C50.46 17.98 50.6533 17.2667 51.04 16.6C51.4267 15.9333 51.94 15.3133 52.58 14.74C53.22 14.1667 53.9133 13.64 54.66 13.16C55.42 12.68 56.1733 12.2467 56.92 11.86C57.68 11.46 58.36 11.1067 58.96 10.8C59.1867 10.6667 59.4 10.58 59.6 10.54C59.8133 10.4867 60.0067 10.46 60.18 10.46C60.78 10.46 61.1933 10.6067 61.42 10.9C61.6467 11.1933 61.76 11.4933 61.76 11.8C61.76 12.0133 61.66 12.2667 61.46 12.56C61.26 12.84 60.94 13.1 60.5 13.34C60.0733 13.58 59.5067 13.7533 58.8 13.86C58.68 13.8733 58.5733 13.8867 58.48 13.9C57.9467 14.1667 57.3733 14.4867 56.76 14.86C56.1467 15.2333 55.5667 15.6267 55.02 16.04C54.4867 16.44 54.0467 16.84 53.7 17.24C53.3533 17.64 53.18 18 53.18 18.32C53.18 18.68 53.3267 19.0067 53.62 19.3C53.9133 19.58 54.2867 19.84 54.74 20.08C55.2067 20.3067 55.6933 20.5267 56.2 20.74C56.72 20.9533 57.2067 21.1733 57.66 21.4C58.1267 21.6133 58.5067 21.8533 58.8 22.12C59.0933 22.3867 59.24 22.6867 59.24 23.02C59.24 23.4733 59.0867 23.9067 58.78 24.32C58.4733 24.7333 58.0733 25.12 57.58 25.48C57.0867 25.8267 56.5467 26.14 55.96 26.42C55.3733 26.7 54.7933 26.94 54.22 27.14C53.66 27.3533 53.1533 27.5133 52.7 27.62C52.2467 27.7267 51.9067 27.78 51.68 27.78ZM63.345 27.76C62.9183 27.76 62.5317 27.64 62.185 27.4C61.8383 27.1733 61.565 26.8733 61.365 26.5C61.165 26.1133 61.065 25.7 61.065 25.26C61.065 24.4333 61.245 23.6267 61.605 22.84C61.9783 22.0533 62.465 21.3067 63.065 20.6C63.665 19.8933 64.3183 19.2467 65.025 18.66C65.745 18.06 66.4583 17.5467 67.165 17.12C67.885 16.6933 68.5383 16.36 69.125 16.12C69.725 15.88 70.1917 15.76 70.525 15.76C70.9117 15.76 71.225 15.8467 71.465 16.02C71.7183 16.18 71.845 16.4333 71.845 16.78C71.845 16.8867 71.8183 16.9733 71.765 17.04C71.9383 17.08 72.0783 17.18 72.185 17.34C72.2917 17.5 72.345 17.74 72.345 18.06C72.345 18.1933 72.3117 18.54 72.245 19.1C72.1783 19.66 72.105 20.34 72.025 21.14C71.9583 21.94 71.925 22.7733 71.925 23.64C71.925 23.7733 71.945 23.8933 71.985 24C72.025 24.0933 72.1117 24.14 72.245 24.14C72.7783 24.14 73.3183 24.0333 73.865 23.82C74.425 23.5933 74.965 23.32 75.485 23C76.0183 22.6667 76.4983 22.34 76.925 22.02C77.365 21.6867 77.7317 21.4133 78.025 21.2C78.3317 20.9733 78.5317 20.86 78.625 20.86C79.0783 20.86 79.305 21.0867 79.305 21.54C79.305 21.66 79.1583 21.9133 78.865 22.3C78.585 22.6733 78.1983 23.1067 77.705 23.6C77.2117 24.08 76.6583 24.56 76.045 25.04C75.445 25.5067 74.8183 25.8933 74.165 26.2C73.525 26.5067 72.905 26.66 72.305 26.66C71.5717 26.66 71.0117 26.4867 70.625 26.14C70.2517 25.7933 69.985 25.3267 69.825 24.74C69.6783 24.14 69.5983 23.4667 69.585 22.72C68.905 23.6933 68.1983 24.56 67.465 25.32C66.745 26.0667 66.0317 26.66 65.325 27.1C64.6183 27.54 63.9583 27.76 63.345 27.76ZM70.425 17.74C69.1183 18.3667 67.945 19.0867 66.905 19.9C65.865 20.7 65.0383 21.54 64.425 22.42C63.825 23.3 63.525 24.1467 63.525 24.96C63.525 25.1867 63.6317 25.3 63.845 25.3C64.0983 25.3 64.4317 25.1533 64.845 24.86C65.2717 24.5667 65.7317 24.18 66.225 23.7C66.7183 23.2067 67.2117 22.66 67.705 22.06C68.1983 21.4467 68.6583 20.82 69.085 20.18C69.5117 19.54 69.8517 18.9267 70.105 18.34C70.1983 18.1267 70.305 17.9267 70.425 17.74ZM78.9123 27.62C78.1123 27.62 77.559 27.46 77.2523 27.14C76.959 26.8333 76.8123 26.4067 76.8123 25.86C76.8123 23.54 77.2457 21.12 78.1123 18.6C78.9923 16.0667 80.2257 13.5267 81.8123 10.98C82.079 10.54 82.299 10.28 82.4723 10.2C82.6457 10.12 82.839 10.08 83.0523 10.08C83.359 10.08 83.6257 10.1867 83.8523 10.4C84.0923 10.6133 84.2123 10.8933 84.2123 11.24C84.2123 11.3467 84.099 11.64 83.8723 12.12C83.6457 12.6 83.3457 13.2133 82.9723 13.96C82.6123 14.7067 82.219 15.5533 81.7923 16.5C81.3657 17.4333 80.9457 18.42 80.5323 19.46C80.1323 20.5 79.7857 21.5467 79.4923 22.6C79.9457 22.0267 80.459 21.44 81.0323 20.84C81.619 20.2267 82.2257 19.6667 82.8523 19.16C83.479 18.64 84.0857 18.2267 84.6723 17.92C85.259 17.6 85.7857 17.44 86.2523 17.44C86.6923 17.44 87.099 17.5467 87.4723 17.76C87.859 17.9733 88.1723 18.3067 88.4123 18.76C88.6523 19.2133 88.7723 19.8 88.7723 20.52C88.7723 21.3067 88.5457 22.1133 88.0923 22.94C87.6523 23.7667 87.0057 24.5333 86.1523 25.24C85.3123 25.9467 84.279 26.52 83.0523 26.96C81.839 27.4 80.459 27.62 78.9123 27.62ZM79.7523 25.34C80.779 25.26 81.7057 25.04 82.5323 24.68C83.3723 24.32 84.0923 23.8733 84.6923 23.34C85.2923 22.8067 85.7523 22.2467 86.0723 21.66C86.3923 21.06 86.5523 20.4933 86.5523 19.96C86.5523 19.84 86.519 19.78 86.4523 19.78C86.1723 19.78 85.819 19.9067 85.3923 20.16C84.9657 20.4 84.499 20.7267 83.9923 21.14C83.4857 21.5533 82.9723 22.0067 82.4523 22.5C81.9323 22.9933 81.439 23.4867 80.9723 23.98C80.5057 24.4733 80.099 24.9267 79.7523 25.34ZM90.8958 27.76C90.4691 27.76 90.0824 27.64 89.7358 27.4C89.3891 27.1733 89.1158 26.8733 88.9158 26.5C88.7158 26.1133 88.6158 25.7 88.6158 25.26C88.6158 24.4333 88.7958 23.6267 89.1558 22.84C89.5291 22.0533 90.0158 21.3067 90.6158 20.6C91.2158 19.8933 91.8691 19.2467 92.5758 18.66C93.2958 18.06 94.0091 17.5467 94.7158 17.12C95.4358 16.6933 96.0891 16.36 96.6758 16.12C97.2758 15.88 97.7424 15.76 98.0758 15.76C98.4624 15.76 98.7758 15.8467 99.0158 16.02C99.2691 16.18 99.3958 16.4333 99.3958 16.78C99.3958 16.8867 99.3691 16.9733 99.3158 17.04C99.4891 17.08 99.6291 17.18 99.7358 17.34C99.8424 17.5 99.8958 17.74 99.8958 18.06C99.8958 18.1933 99.8624 18.54 99.7958 19.1C99.7291 19.66 99.6558 20.34 99.5758 21.14C99.5091 21.94 99.4758 22.7733 99.4758 23.64C99.4758 23.7733 99.4958 23.8933 99.5358 24C99.5758 24.0933 99.6624 24.14 99.7958 24.14C100.329 24.14 100.869 24.0333 101.416 23.82C101.976 23.5933 102.516 23.32 103.036 23C103.569 22.6667 104.049 22.34 104.476 22.02C104.916 21.6867 105.282 21.4133 105.576 21.2C105.882 20.9733 106.082 20.86 106.176 20.86C106.629 20.86 106.856 21.0867 106.856 21.54C106.856 21.66 106.709 21.9133 106.416 22.3C106.136 22.6733 105.749 23.1067 105.256 23.6C104.762 24.08 104.209 24.56 103.596 25.04C102.996 25.5067 102.369 25.8933 101.716 26.2C101.076 26.5067 100.456 26.66 99.8558 26.66C99.1224 26.66 98.5624 26.4867 98.1758 26.14C97.8024 25.7933 97.5358 25.3267 97.3758 24.74C97.2291 24.14 97.1491 23.4667 97.1358 22.72C96.4558 23.6933 95.7491 24.56 95.0158 25.32C94.2958 26.0667 93.5824 26.66 92.8758 27.1C92.1691 27.54 91.5091 27.76 90.8958 27.76ZM97.9758 17.74C96.6691 18.3667 95.4958 19.0867 94.4558 19.9C93.4158 20.7 92.5891 21.54 91.9758 22.42C91.3758 23.3 91.0758 24.1467 91.0758 24.96C91.0758 25.1867 91.1824 25.3 91.3958 25.3C91.6491 25.3 91.9824 25.1533 92.3958 24.86C92.8224 24.5667 93.2824 24.18 93.7758 23.7C94.2691 23.2067 94.7624 22.66 95.2558 22.06C95.7491 21.4467 96.2091 20.82 96.6358 20.18C97.0624 19.54 97.4024 18.9267 97.6558 18.34C97.7491 18.1267 97.8558 17.9267 97.9758 17.74ZM106.463 27.62C105.663 27.62 105.11 27.46 104.803 27.14C104.51 26.8333 104.363 26.4067 104.363 25.86C104.363 23.54 104.796 21.12 105.663 18.6C106.543 16.0667 107.776 13.5267 109.363 10.98C109.63 10.54 109.85 10.28 110.023 10.2C110.196 10.12 110.39 10.08 110.603 10.08C110.91 10.08 111.176 10.1867 111.403 10.4C111.643 10.6133 111.763 10.8933 111.763 11.24C111.763 11.3467 111.65 11.64 111.423 12.12C111.196 12.6 110.896 13.2133 110.523 13.96C110.163 14.7067 109.77 15.5533 109.343 16.5C108.916 17.4333 108.496 18.42 108.083 19.46C107.683 20.5 107.336 21.5467 107.043 22.6C107.496 22.0267 108.01 21.44 108.583 20.84C109.17 20.2267 109.776 19.6667 110.403 19.16C111.03 18.64 111.636 18.2267 112.223 17.92C112.81 17.6 113.336 17.44 113.803 17.44C114.243 17.44 114.65 17.5467 115.023 17.76C115.41 17.9733 115.723 18.3067 115.963 18.76C116.203 19.2133 116.323 19.8 116.323 20.52C116.323 21.3067 116.096 22.1133 115.643 22.94C115.203 23.7667 114.556 24.5333 113.703 25.24C112.863 25.9467 111.83 26.52 110.603 26.96C109.39 27.4 108.01 27.62 106.463 27.62ZM107.303 25.34C108.33 25.26 109.256 25.04 110.083 24.68C110.923 24.32 111.643 23.8733 112.243 23.34C112.843 22.8067 113.303 22.2467 113.623 21.66C113.943 21.06 114.103 20.4933 114.103 19.96C114.103 19.84 114.07 19.78 114.003 19.78C113.723 19.78 113.37 19.9067 112.943 20.16C112.516 20.4 112.05 20.7267 111.543 21.14C111.036 21.5533 110.523 22.0067 110.003 22.5C109.483 22.9933 108.99 23.4867 108.523 23.98C108.056 24.4733 107.65 24.9267 107.303 25.34ZM118.447 27.76C118.02 27.76 117.633 27.64 117.287 27.4C116.94 27.1733 116.667 26.8733 116.467 26.5C116.267 26.1133 116.167 25.7 116.167 25.26C116.167 24.4333 116.347 23.6267 116.707 22.84C117.08 22.0533 117.567 21.3067 118.167 20.6C118.767 19.8933 119.42 19.2467 120.127 18.66C120.847 18.06 121.56 17.5467 122.267 17.12C122.987 16.6933 123.64 16.36 124.227 16.12C124.827 15.88 125.293 15.76 125.627 15.76C126.013 15.76 126.327 15.8467 126.567 16.02C126.82 16.18 126.947 16.4333 126.947 16.78C126.947 16.8867 126.92 16.9733 126.867 17.04C127.04 17.08 127.18 17.18 127.287 17.34C127.393 17.5 127.447 17.74 127.447 18.06C127.447 18.1933 127.413 18.54 127.347 19.1C127.28 19.66 127.207 20.34 127.127 21.14C127.06 21.94 127.027 22.7733 127.027 23.64C127.027 23.7733 127.047 23.8933 127.087 24C127.127 24.0933 127.213 24.14 127.347 24.14C127.88 24.14 128.42 24.0333 128.967 23.82C129.527 23.5933 130.067 23.32 130.587 23C131.12 22.6667 131.6 22.34 132.027 22.02C132.467 21.6867 132.833 21.4133 133.127 21.2C133.433 20.9733 133.633 20.86 133.727 20.86C134.18 20.86 134.407 21.0867 134.407 21.54C134.407 21.66 134.26 21.9133 133.967 22.3C133.687 22.6733 133.3 23.1067 132.807 23.6C132.313 24.08 131.76 24.56 131.147 25.04C130.547 25.5067 129.92 25.8933 129.267 26.2C128.627 26.5067 128.007 26.66 127.407 26.66C126.673 26.66 126.113 26.4867 125.727 26.14C125.353 25.7933 125.087 25.3267 124.927 24.74C124.78 24.14 124.7 23.4667 124.687 22.72C124.007 23.6933 123.3 24.56 122.567 25.32C121.847 26.0667 121.133 26.66 120.427 27.1C119.72 27.54 119.06 27.76 118.447 27.76ZM125.527 17.74C124.22 18.3667 123.047 19.0867 122.007 19.9C120.967 20.7 120.14 21.54 119.527 22.42C118.927 23.3 118.627 24.1467 118.627 24.96C118.627 25.1867 118.733 25.3 118.947 25.3C119.2 25.3 119.533 25.1533 119.947 24.86C120.373 24.5667 120.833 24.18 121.327 23.7C121.82 23.2067 122.313 22.66 122.807 22.06C123.3 21.4467 123.76 20.82 124.187 20.18C124.613 19.54 124.953 18.9267 125.207 18.34C125.3 18.1267 125.407 17.9267 125.527 17.74Z" fill="black"/>
</svg>
