<svg width="48" height="48" viewBox="0 0 48 48" fill="none" xmlns="http://www.w3.org/2000/svg">
<rect width="48" height="48" rx="24" fill="white" fill-opacity="0.5"/>
<path d="M23.4948 15.1567L24.0006 15.6187L24.5064 15.1567C25.9483 13.8398 27.8202 13.1624 29.7256 13.2591C31.6313 13.3558 33.4326 14.2198 34.746 15.6783C36.0603 17.1378 36.7814 19.0774 36.7489 21.0878C36.7165 23.0981 35.9331 25.0109 34.573 26.423L34.5726 26.4234L27.7498 33.5189L27.7497 33.5191L23.9982 37.4181L15.0327 28.0956L15.0322 28.0951L13.4265 26.4225L13.4258 26.4217C12.0661 25.0094 11.2832 23.0966 11.251 21.0864C11.2189 19.0763 11.9402 17.1369 13.2545 15.6777C14.568 14.2194 16.3693 13.3557 18.2748 13.2591C20.1802 13.1625 22.0532 13.84 23.4948 15.1567Z" stroke="black" stroke-width="1.5"/>
</svg>
