<svg width="24" height="25" viewBox="0 0 24 25" fill="none" xmlns="http://www.w3.org/2000/svg">
<path d="M11.9968 6.34284C8.58954 6.34284 5.83973 9.0927 5.83973 12.5C5.83973 15.9073 8.58954 18.6572 11.9968 18.6572C15.404 18.6572 18.1538 15.9073 18.1538 12.5C18.1538 9.0927 15.404 6.34284 11.9968 6.34284ZM11.9968 16.5017C9.79333 16.5017 7.99515 14.7035 7.99515 12.5C7.99515 10.2965 9.79333 8.4983 11.9968 8.4983C14.2002 8.4983 15.9984 10.2965 15.9984 12.5C15.9984 14.7035 14.2002 16.5017 11.9968 16.5017ZM18.406 4.6557C17.6105 4.6557 16.968 5.29813 16.968 6.09367C16.968 6.88921 17.6105 7.53164 18.406 7.53164C19.2015 7.53164 19.8439 6.89221 19.8439 6.09367C19.8442 5.90477 19.8071 5.71767 19.735 5.5431C19.6628 5.36853 19.5569 5.20992 19.4233 5.07634C19.2897 4.94277 19.1311 4.83686 18.9565 4.76468C18.782 4.6925 18.5949 4.65546 18.406 4.6557ZM23.9987 12.5C23.9987 10.8429 24.0137 9.20077 23.9206 7.54665C23.8275 5.62536 23.3893 3.9202 21.9843 2.51525C20.5764 1.1073 18.8743 0.672008 16.953 0.578946C15.2959 0.485883 13.6539 0.500893 11.9998 0.500893C10.3427 0.500893 8.70061 0.485883 7.04652 0.578946C5.12526 0.672008 3.42014 1.1103 2.01522 2.51525C0.607291 3.92321 0.172005 5.62536 0.0789442 7.54665C-0.014117 9.20377 0.000892919 10.8459 0.000892919 12.5C0.000892919 14.1541 -0.014117 15.7992 0.0789442 17.4533C0.172005 19.3746 0.610293 21.0798 2.01522 22.4847C3.42314 23.8927 5.12526 24.328 7.04652 24.4211C8.70361 24.5141 10.3457 24.4991 11.9998 24.4991C13.6569 24.4991 15.2989 24.5141 16.953 24.4211C18.8743 24.328 20.5794 23.8897 21.9843 22.4847C23.3923 21.0768 23.8275 19.3746 23.9206 17.4533C24.0167 15.7992 23.9987 14.1571 23.9987 12.5ZM21.3569 19.5788C21.1378 20.1252 20.8736 20.5334 20.4503 20.9537C20.0271 21.377 19.6218 21.6412 19.0754 21.8603C17.4964 22.4877 13.7469 22.3467 11.9968 22.3467C10.2466 22.3467 6.49416 22.4877 4.91512 21.8633C4.36876 21.6442 3.96049 21.38 3.54022 20.9567C3.11694 20.5334 2.85277 20.1282 2.63362 19.5818C2.00921 17.9997 2.15031 14.2502 2.15031 12.5C2.15031 10.7498 2.00921 6.99728 2.63362 5.41822C2.85277 4.87185 3.11694 4.46357 3.54022 4.04329C3.9635 3.623 4.36876 3.35582 4.91512 3.13667C6.49416 2.51225 10.2466 2.65335 11.9968 2.65335C13.7469 2.65335 17.4994 2.51225 19.0784 3.13667C19.6248 3.35582 20.0331 3.62 20.4533 4.04329C20.8766 4.46657 21.1408 4.87185 21.3599 5.41822C21.9843 6.99728 21.8432 10.7498 21.8432 12.5C21.8432 14.2502 21.9843 17.9997 21.3569 19.5788Z" fill="white"/>
</svg>
