<svg width="20" height="20" viewBox="0 0 20 20" fill="none" xmlns="http://www.w3.org/2000/svg">
<path d="M14.375 0.875H5.375C2.88972 0.875 0.875 2.88972 0.875 5.375V14.375C0.875 16.8603 2.88972 18.875 5.375 18.875H14.375C16.8603 18.875 18.875 16.8603 18.875 14.375V5.375C18.875 2.88972 16.8603 0.875 14.375 0.875Z" stroke="white" stroke-width="1.75" stroke-linecap="round" stroke-linejoin="round"/>
<path d="M13.4755 9.30803C13.5866 10.057 13.4587 10.822 13.1099 11.4941C12.7612 12.1663 12.2093 12.7113 11.533 13.0517C10.8566 13.3922 10.0901 13.5107 9.34253 13.3904C8.59493 13.2701 7.9043 12.9171 7.36887 12.3817C6.83344 11.8462 6.48048 11.1556 6.36018 10.408C6.23988 9.66042 6.35838 8.89393 6.69881 8.21756C7.03925 7.5412 7.58429 6.98939 8.2564 6.64064C8.92852 6.2919 9.6935 6.16396 10.4425 6.27503C11.2065 6.38832 11.9139 6.74434 12.46 7.2905C13.0062 7.83666 13.3622 8.544 13.4755 9.30803Z" stroke="white" stroke-width="1.75" stroke-linecap="round" stroke-linejoin="round"/>
<path d="M14.8242 4.92499H14.8332" stroke="white" stroke-width="1.75" stroke-linecap="round" stroke-linejoin="round"/>
</svg>
