<svg width="20" height="21" viewBox="0 0 20 21" fill="none" xmlns="http://www.w3.org/2000/svg">
<path d="M18.0969 1.5L16.2908 3.39224M16.2908 3.39224L19 6.2306L15.8392 9.54203L13.13 6.70366M16.2908 3.39224L13.13 6.70366M9.41838 10.5922C9.88468 11.0742 10.2554 11.6481 10.5091 12.2808C10.7628 12.9136 10.8945 13.5926 10.8967 14.2789C10.8989 14.9652 10.7715 15.6451 10.5219 16.2796C10.2722 16.9141 9.90519 17.4906 9.44199 17.9759C8.97879 18.4612 8.42854 18.8457 7.82292 19.1072C7.2173 19.3688 6.56828 19.5023 5.91322 19.5C5.25816 19.4977 4.61 19.3596 4.00607 19.0938C3.40214 18.828 2.85436 18.4397 2.39427 17.9511C1.48951 16.9697 0.988871 15.6553 1.00019 14.2909C1.0115 12.9265 1.53387 11.6214 2.45477 10.6566C3.37568 9.69175 4.62144 9.14449 5.92375 9.13263C7.22606 9.12078 8.48071 9.64528 9.41748 10.5932L9.41838 10.5922ZM9.41838 10.5922L13.13 6.70366" stroke="#787C7F" stroke-width="1.75" stroke-linecap="round" stroke-linejoin="round"/>
</svg>
