<svg width="24" height="25" viewBox="0 0 24 25" fill="none" xmlns="http://www.w3.org/2000/svg">
<path d="M11.9994 0.5C5.3715 0.5 0 5.8727 0 12.4994C0 17.5826 3.1626 21.9284 7.62725 23.6772C7.52155 22.7283 7.42786 21.2677 7.66808 20.2323C7.88669 19.2955 9.07582 14.2675 9.07582 14.2675C9.07582 14.2675 8.71668 13.548 8.71668 12.485C8.71668 10.8178 9.6836 9.57222 10.8883 9.57222C11.9129 9.57222 12.4066 10.3409 12.4066 11.2622C12.4066 12.2928 11.7508 13.8315 11.4132 15.2584C11.131 16.4523 12.0126 17.4265 13.1897 17.4265C15.3218 17.4265 16.9625 15.1779 16.9625 11.9313C16.9625 9.05813 14.8978 7.04982 11.9502 7.04982C8.53531 7.04982 6.5306 9.61065 6.5306 12.2568C6.5306 13.2873 6.92818 14.3936 7.42425 14.9954C7.46641 15.0407 7.49618 15.0961 7.51069 15.1563C7.52521 15.2164 7.52398 15.2793 7.50713 15.3389C7.41584 15.7173 7.21285 16.5328 7.17442 16.6998C7.12156 16.9196 7.00025 16.9664 6.77203 16.8607C5.27421 16.1629 4.33732 13.972 4.33732 12.2111C4.33732 8.42633 7.08673 4.95023 12.2661 4.95023C16.4292 4.95023 19.6639 7.91584 19.6639 11.8808C19.6639 16.0175 17.0562 19.3435 13.4372 19.3435C12.2204 19.3435 11.0781 18.7129 10.6866 17.967L9.93824 20.8185C9.66798 21.8611 8.93649 23.1679 8.44762 23.9655C9.59845 24.3208 10.7962 24.501 12.0006 24.5C18.6273 24.5 24 19.1273 24 12.5006C24 5.8739 18.6261 0.5 11.9994 0.5Z" fill="white"/>
</svg>
