<svg width="107" height="29" viewBox="0 0 107 29" fill="none" xmlns="http://www.w3.org/2000/svg">
<path d="M3.54425 28.248C2.69092 28.248 2.05092 28.0133 1.62425 27.544C1.19758 27.0747 0.98425 26.5947 0.98425 26.104C0.98425 25.528 1.09092 25.0907 1.30425 24.792C1.51758 24.4933 1.93358 24.2693 2.55225 24.12C3.36292 23.9493 4.20558 23.736 5.08025 23.48C5.97625 23.224 6.82958 22.9573 7.64025 22.68C8.47225 22.3813 9.19758 22.0827 9.81625 21.784C10.4349 21.464 10.8829 21.1653 11.1603 20.888C10.8189 20.696 10.2749 20.472 9.52825 20.216C8.78158 19.9387 7.94958 19.6187 7.03225 19.256C6.13625 18.872 5.27225 18.424 4.44025 17.912C3.60825 17.4 2.92558 16.8027 2.39225 16.12C1.85892 15.4373 1.59225 14.6587 1.59225 13.784C1.59225 12.568 1.90158 11.4267 2.52025 10.36C3.13892 9.29333 3.96025 8.30133 4.98425 7.384C6.00825 6.46667 7.11758 5.624 8.31225 4.856C9.52825 4.088 10.7336 3.39467 11.9283 2.776C13.1443 2.136 14.2323 1.57066 15.1923 1.08C15.5549 0.866665 15.8963 0.727999 16.2163 0.664C16.5576 0.578666 16.8669 0.535999 17.1443 0.535999C18.1043 0.535999 18.7656 0.770665 19.1283 1.24C19.4909 1.70933 19.6723 2.18933 19.6723 2.68C19.6723 3.02133 19.5123 3.42667 19.1923 3.896C18.8723 4.344 18.3603 4.76 17.6562 5.144C16.9736 5.528 16.0669 5.80533 14.9363 5.976C14.7443 5.99733 14.5736 6.01867 14.4243 6.04C13.5709 6.46667 12.6536 6.97867 11.6723 7.576C10.6909 8.17333 9.76292 8.80267 8.88825 9.464C8.03492 10.104 7.33092 10.744 6.77625 11.384C6.22158 12.024 5.94425 12.6 5.94425 13.112C5.94425 13.688 6.17892 14.2107 6.64825 14.68C7.11758 15.128 7.71492 15.544 8.44025 15.928C9.18692 16.2907 9.96558 16.6427 10.7763 16.984C11.6083 17.3253 12.3869 17.6773 13.1123 18.04C13.8589 18.3813 14.4669 18.7653 14.9363 19.192C15.4056 19.6187 15.6403 20.0987 15.6403 20.632C15.6403 21.3573 15.3949 22.0507 14.9043 22.712C14.4136 23.3733 13.7736 23.992 12.9843 24.568C12.1949 25.1227 11.3309 25.624 10.3923 26.072C9.45358 26.52 8.52558 26.904 7.60825 27.224C6.71225 27.5653 5.90158 27.8213 5.17625 27.992C4.45092 28.1627 3.90692 28.248 3.54425 28.248ZM26.5469 27.2656C23.3438 27.2656 21.0156 25.25 21.0156 22.2656C21.0156 19.3281 23.2812 17.5625 27.3125 17.3125L31.7031 17.0625V15.875C31.7031 14.1406 30.5312 13.1406 28.6094 13.1406C27.0938 13.1406 26.1094 13.6562 25.1406 15.0781C24.7344 15.6094 24.2188 15.8594 23.5625 15.8594C22.6094 15.8594 21.9219 15.2344 21.9219 14.2969C21.9219 13.9375 22.0156 13.5938 22.1875 13.2344C23.0312 11.3125 25.5938 10.0938 28.7656 10.0938C32.875 10.0938 35.5469 12.2656 35.5469 15.5938V25.3594C35.5469 26.6094 34.75 27.3125 33.6562 27.3125C32.5938 27.3125 31.8594 26.6719 31.7969 25.5156V24.3594H31.7188C30.7656 26.1562 28.6875 27.2656 26.5469 27.2656ZM27.7344 24.3281C29.9219 24.3281 31.7031 22.8594 31.7031 20.8594V19.5938L27.8594 19.8281C25.9844 19.9531 24.9062 20.7969 24.9062 22.1094C24.9062 23.4688 26.0469 24.3281 27.7344 24.3281ZM40.6875 27.3125C39.5625 27.3125 38.7969 26.625 38.7969 25.3594V6.1875C38.7969 4.875 39.6094 4.14062 40.75 4.14062C41.8906 4.14062 42.6875 4.875 42.6875 6.1875V13.2812H42.7812C43.7344 11.3438 45.6094 10.1562 47.9688 10.1562C52.1406 10.1562 54.7969 13.4219 54.7969 18.7188C54.7969 24.0156 52.1562 27.2656 47.9531 27.2656C45.5312 27.2656 43.6719 26.0938 42.6875 24.1719H42.6094V25.3594C42.6094 26.6094 41.8125 27.3125 40.6875 27.3125ZM46.7656 24.0781C49.25 24.0781 50.8125 22.0156 50.8125 18.7188C50.8125 15.4375 49.25 13.3594 46.7656 13.3594C44.3594 13.3594 42.6719 15.5 42.6719 18.7188C42.6719 21.9688 44.3594 24.0781 46.7656 24.0781ZM62.1719 27.2656C58.9688 27.2656 56.6406 25.25 56.6406 22.2656C56.6406 19.3281 58.9062 17.5625 62.9375 17.3125L67.3281 17.0625V15.875C67.3281 14.1406 66.1562 13.1406 64.2344 13.1406C62.7188 13.1406 61.7344 13.6562 60.7656 15.0781C60.3594 15.6094 59.8438 15.8594 59.1875 15.8594C58.2344 15.8594 57.5469 15.2344 57.5469 14.2969C57.5469 13.9375 57.6406 13.5938 57.8125 13.2344C58.6562 11.3125 61.2188 10.0938 64.3906 10.0938C68.5 10.0938 71.1719 12.2656 71.1719 15.5938V25.3594C71.1719 26.6094 70.375 27.3125 69.2812 27.3125C68.2188 27.3125 67.4844 26.6719 67.4219 25.5156V24.3594H67.3438C66.3906 26.1562 64.3125 27.2656 62.1719 27.2656ZM63.3594 24.3281C65.5469 24.3281 67.3281 22.8594 67.3281 20.8594V19.5938L63.4844 19.8281C61.6094 19.9531 60.5312 20.7969 60.5312 22.1094C60.5312 23.4688 61.6719 24.3281 63.3594 24.3281ZM76.3125 27.3125C75.1875 27.3125 74.4219 26.625 74.4219 25.3594V6.1875C74.4219 4.875 75.2344 4.14062 76.375 4.14062C77.5156 4.14062 78.3125 4.875 78.3125 6.1875V13.2812H78.4062C79.3594 11.3438 81.2344 10.1562 83.5938 10.1562C87.7656 10.1562 90.4219 13.4219 90.4219 18.7188C90.4219 24.0156 87.7812 27.2656 83.5781 27.2656C81.1562 27.2656 79.2969 26.0938 78.3125 24.1719H78.2344V25.3594C78.2344 26.6094 77.4375 27.3125 76.3125 27.3125ZM82.3906 24.0781C84.875 24.0781 86.4375 22.0156 86.4375 18.7188C86.4375 15.4375 84.875 13.3594 82.3906 13.3594C79.9844 13.3594 78.2969 15.5 78.2969 18.7188C78.2969 21.9688 79.9844 24.0781 82.3906 24.0781ZM97.7969 27.2656C94.5938 27.2656 92.2656 25.25 92.2656 22.2656C92.2656 19.3281 94.5312 17.5625 98.5625 17.3125L102.953 17.0625V15.875C102.953 14.1406 101.781 13.1406 99.8594 13.1406C98.3438 13.1406 97.3594 13.6562 96.3906 15.0781C95.9844 15.6094 95.4688 15.8594 94.8125 15.8594C93.8594 15.8594 93.1719 15.2344 93.1719 14.2969C93.1719 13.9375 93.2656 13.5938 93.4375 13.2344C94.2812 11.3125 96.8438 10.0938 100.016 10.0938C104.125 10.0938 106.797 12.2656 106.797 15.5938V25.3594C106.797 26.6094 106 27.3125 104.906 27.3125C103.844 27.3125 103.109 26.6719 103.047 25.5156V24.3594H102.969C102.016 26.1562 99.9375 27.2656 97.7969 27.2656ZM98.9844 24.3281C101.172 24.3281 102.953 22.8594 102.953 20.8594V19.5938L99.1094 19.8281C97.2344 19.9531 96.1562 20.7969 96.1562 22.1094C96.1562 23.4688 97.2969 24.3281 98.9844 24.3281Z" fill="#1C1C1C"/>
</svg>
