<svg width="75" height="111" viewBox="0 0 75 111" fill="none" xmlns="http://www.w3.org/2000/svg">
<path d="M10.2395 110.848C6.82617 110.848 4.26617 109.909 2.5595 108.032C0.852834 106.155 -0.000499725 104.235 -0.000499725 102.272C-0.000499725 99.968 0.426167 98.2186 1.2795 97.024C2.13283 95.8293 3.79683 94.9333 6.2715 94.336C9.51417 93.6533 12.8848 92.8 16.3835 91.776C19.9675 90.752 23.3808 89.6853 26.6235 88.576C29.9515 87.3813 32.8528 86.1866 35.3275 84.992C37.8022 83.712 39.5942 82.5173 40.7035 81.408C39.3382 80.64 37.1622 79.744 34.1755 78.72C31.1888 77.6106 27.8608 76.3306 24.1915 74.88C20.6075 73.344 17.1515 71.552 13.8235 69.504C10.4955 67.456 7.76483 65.0666 5.6315 62.336C3.49817 59.6053 2.4315 56.4906 2.4315 52.992C2.4315 48.128 3.66883 43.5626 6.1435 39.296C8.61817 35.0293 11.9035 31.0613 15.9995 27.392C20.0955 23.7226 24.5328 20.352 29.3115 17.28C34.1755 14.208 38.9968 11.4346 43.7755 8.95995C48.6395 6.39995 52.9915 4.13862 56.8315 2.17595C58.2822 1.32262 59.6475 0.767952 60.9275 0.511955C62.2928 0.170621 63.5302 -4.57764e-05 64.6395 -4.57764e-05C68.4795 -4.57764e-05 71.1248 0.938619 72.5755 2.81595C74.0262 4.69328 74.7515 6.61328 74.7515 8.57595C74.7515 9.94129 74.1115 11.5626 72.8315 13.4399C71.5515 15.232 69.5035 16.896 66.6875 18.432C63.9568 19.968 60.3302 21.0773 55.8075 21.76C55.0395 21.8453 54.3568 21.9306 53.7595 22.016C50.3462 23.7226 46.6768 25.7706 42.7515 28.16C38.8262 30.5493 35.1142 33.0666 31.6155 35.712C28.2022 38.272 25.3862 40.832 23.1675 43.392C20.9488 45.952 19.8395 48.256 19.8395 50.304C19.8395 52.608 20.7782 54.6986 22.6555 56.576C24.5328 58.368 26.9222 60.032 29.8235 61.568C32.8102 63.0186 35.9248 64.4266 39.1675 65.792C42.4955 67.1573 45.6102 68.5653 48.5115 70.016C51.4982 71.3813 53.9302 72.9173 55.8075 74.624C57.6848 76.3306 58.6235 78.2506 58.6235 80.384C58.6235 83.2853 57.6422 86.0586 55.6795 88.704C53.7168 91.3493 51.1568 93.824 47.9995 96.128C44.8422 98.3466 41.3862 100.352 37.6315 102.144C33.8768 103.936 30.1648 105.472 26.4955 106.752C22.9115 108.117 19.6688 109.141 16.7675 109.824C13.8662 110.507 11.6902 110.848 10.2395 110.848Z" fill="#1C1C1C"/>
</svg>
