<svg width="40" height="40" viewBox="0 0 40 40" fill="none" xmlns="http://www.w3.org/2000/svg">
<rect width="40" height="40" rx="20" fill="black"/>
<path d="M16.18 27.78C15.6467 27.78 15.2467 27.6333 14.98 27.34C14.7133 27.0467 14.58 26.7467 14.58 26.44C14.58 26.08 14.6467 25.8067 14.78 25.62C14.9133 25.4333 15.1733 25.2933 15.56 25.2C16.0667 25.0933 16.5933 24.96 17.14 24.8C17.7 24.64 18.2333 24.4733 18.74 24.3C19.26 24.1133 19.7133 23.9267 20.1 23.74C20.4867 23.54 20.7667 23.3533 20.94 23.18C20.7267 23.06 20.3867 22.92 19.92 22.76C19.4533 22.5867 18.9333 22.3867 18.36 22.16C17.8 21.92 17.26 21.64 16.74 21.32C16.22 21 15.7933 20.6267 15.46 20.2C15.1267 19.7733 14.96 19.2867 14.96 18.74C14.96 17.98 15.1533 17.2667 15.54 16.6C15.9267 15.9333 16.44 15.3133 17.08 14.74C17.72 14.1667 18.4133 13.64 19.16 13.16C19.92 12.68 20.6733 12.2467 21.42 11.86C22.18 11.46 22.86 11.1067 23.46 10.8C23.6867 10.6667 23.9 10.58 24.1 10.54C24.3133 10.4867 24.5067 10.46 24.68 10.46C25.28 10.46 25.6933 10.6067 25.92 10.9C26.1467 11.1933 26.26 11.4933 26.26 11.8C26.26 12.0133 26.16 12.2667 25.96 12.56C25.76 12.84 25.44 13.1 25 13.34C24.5733 13.58 24.0067 13.7533 23.3 13.86C23.18 13.8733 23.0733 13.8867 22.98 13.9C22.4467 14.1667 21.8733 14.4867 21.26 14.86C20.6467 15.2333 20.0667 15.6267 19.52 16.04C18.9867 16.44 18.5467 16.84 18.2 17.24C17.8533 17.64 17.68 18 17.68 18.32C17.68 18.68 17.8267 19.0067 18.12 19.3C18.4133 19.58 18.7867 19.84 19.24 20.08C19.7067 20.3067 20.1933 20.5267 20.7 20.74C21.22 20.9533 21.7067 21.1733 22.16 21.4C22.6267 21.6133 23.0067 21.8533 23.3 22.12C23.5933 22.3867 23.74 22.6867 23.74 23.02C23.74 23.4733 23.5867 23.9067 23.28 24.32C22.9733 24.7333 22.5733 25.12 22.08 25.48C21.5867 25.8267 21.0467 26.14 20.46 26.42C19.8733 26.7 19.2933 26.94 18.72 27.14C18.16 27.3533 17.6533 27.5133 17.2 27.62C16.7467 27.7267 16.4067 27.78 16.18 27.78Z" fill="white"/>
</svg>
