<svg width="168" height="44" viewBox="0 0 168 44" fill="none" xmlns="http://www.w3.org/2000/svg">
<rect width="44" height="44" rx="22" fill="black"/>
<path d="M17.916 31.436C17.276 31.436 16.796 31.26 16.476 30.908C16.156 30.556 15.996 30.196 15.996 29.828C15.996 29.396 16.076 29.068 16.236 28.844C16.396 28.62 16.708 28.452 17.172 28.34C17.78 28.212 18.412 28.052 19.068 27.86C19.74 27.668 20.38 27.468 20.988 27.26C21.612 27.036 22.156 26.812 22.62 26.588C23.084 26.348 23.42 26.124 23.628 25.916C23.372 25.772 22.964 25.604 22.404 25.412C21.844 25.204 21.22 24.964 20.532 24.692C19.86 24.404 19.212 24.068 18.588 23.684C17.964 23.3 17.452 22.852 17.052 22.34C16.652 21.828 16.452 21.244 16.452 20.588C16.452 19.676 16.684 18.82 17.148 18.02C17.612 17.22 18.228 16.476 18.996 15.788C19.764 15.1 20.596 14.468 21.492 13.892C22.404 13.316 23.308 12.796 24.204 12.332C25.116 11.852 25.932 11.428 26.652 11.06C26.924 10.9 27.18 10.796 27.42 10.748C27.676 10.684 27.908 10.652 28.116 10.652C28.836 10.652 29.332 10.828 29.604 11.18C29.876 11.532 30.012 11.892 30.012 12.26C30.012 12.516 29.892 12.82 29.652 13.172C29.412 13.508 29.028 13.82 28.5 14.108C27.988 14.396 27.308 14.604 26.46 14.732C26.316 14.748 26.188 14.764 26.076 14.78C25.436 15.1 24.748 15.484 24.012 15.932C23.276 16.38 22.58 16.852 21.924 17.348C21.284 17.828 20.756 18.308 20.34 18.788C19.924 19.268 19.716 19.7 19.716 20.084C19.716 20.516 19.892 20.908 20.244 21.26C20.596 21.596 21.044 21.908 21.588 22.196C22.148 22.468 22.732 22.732 23.34 22.988C23.964 23.244 24.548 23.508 25.092 23.78C25.652 24.036 26.108 24.324 26.46 24.644C26.812 24.964 26.988 25.324 26.988 25.724C26.988 26.268 26.804 26.788 26.436 27.284C26.068 27.78 25.588 28.244 24.996 28.676C24.404 29.092 23.756 29.468 23.052 29.804C22.348 30.14 21.652 30.428 20.964 30.668C20.292 30.924 19.684 31.116 19.14 31.244C18.596 31.372 18.188 31.436 17.916 31.436Z" fill="white"/>
<path d="M64.68 31.724C63.992 31.724 63.504 31.628 63.216 31.436C62.944 31.244 62.808 30.964 62.808 30.596C62.808 30.276 62.92 30.004 63.144 29.78C63.368 29.54 63.864 29.3 64.632 29.06C65.528 28.788 66.376 28.476 67.176 28.124C67.992 27.756 68.656 27.356 69.168 26.924C69.696 26.492 69.96 26.036 69.96 25.556C69.96 25.236 69.848 25.004 69.624 24.86C69.416 24.716 69.168 24.644 68.88 24.644C68.64 24.644 68.288 24.684 67.824 24.764C67.376 24.828 66.88 24.916 66.336 25.028C65.792 25.124 65.264 25.212 64.752 25.292C64.256 25.356 63.832 25.388 63.48 25.388C62.648 25.388 62.032 25.204 61.632 24.836C61.232 24.452 61.032 23.964 61.032 23.372C61.032 23.052 61.2 22.612 61.536 22.052C61.872 21.492 62.32 20.876 62.88 20.204C63.44 19.532 64.064 18.86 64.752 18.188C65.44 17.516 66.136 16.9 66.84 16.34C67.56 15.764 68.24 15.308 68.88 14.972C69.52 14.62 70.064 14.444 70.512 14.444C71.024 14.444 71.432 14.604 71.736 14.924C72.056 15.244 72.216 15.676 72.216 16.22C72.216 16.476 72.192 16.756 72.144 17.06C72.096 17.348 71.976 17.612 71.784 17.852C71.592 18.076 71.296 18.236 70.896 18.332C70.496 18.428 69.952 18.412 69.264 18.284C68.72 18.684 68.152 19.124 67.56 19.604C66.984 20.068 66.44 20.556 65.928 21.068C65.416 21.564 64.992 22.052 64.656 22.532C65.248 22.34 65.92 22.188 66.672 22.076C67.424 21.948 68.184 21.884 68.952 21.884C69.88 21.884 70.632 22.052 71.208 22.388C71.8 22.708 72.232 23.14 72.504 23.684C72.792 24.228 72.936 24.828 72.936 25.484C72.936 26.22 72.696 26.956 72.216 27.692C71.736 28.428 71.096 29.1 70.296 29.708C69.496 30.316 68.608 30.804 67.632 31.172C66.656 31.54 65.672 31.724 64.68 31.724ZM77.2937 31.412C76.7817 31.412 76.3177 31.268 75.9017 30.98C75.4857 30.708 75.1577 30.348 74.9177 29.9C74.6777 29.436 74.5577 28.94 74.5577 28.412C74.5577 27.42 74.7737 26.452 75.2057 25.508C75.6537 24.564 76.2377 23.668 76.9577 22.82C77.6777 21.972 78.4617 21.196 79.3097 20.492C80.1737 19.772 81.0297 19.156 81.8777 18.644C82.7417 18.132 83.5257 17.732 84.2297 17.444C84.9497 17.156 85.5097 17.012 85.9097 17.012C86.3737 17.012 86.7497 17.116 87.0377 17.324C87.3417 17.516 87.4937 17.82 87.4937 18.236C87.4937 18.364 87.4617 18.468 87.3977 18.548C87.6057 18.596 87.7737 18.716 87.9017 18.908C88.0297 19.1 88.0937 19.388 88.0937 19.772C88.0937 19.932 88.0537 20.348 87.9737 21.02C87.8937 21.692 87.8057 22.508 87.7097 23.468C87.6297 24.428 87.5897 25.428 87.5897 26.468C87.5897 26.628 87.6137 26.772 87.6617 26.9C87.7097 27.012 87.8137 27.068 87.9737 27.068C88.6137 27.068 89.2617 26.94 89.9177 26.684C90.5897 26.412 91.2377 26.084 91.8617 25.7C92.5017 25.3 93.0777 24.908 93.5897 24.524C94.1177 24.124 94.5577 23.796 94.9097 23.54C95.2777 23.268 95.5177 23.132 95.6297 23.132C96.1737 23.132 96.4457 23.404 96.4457 23.948C96.4457 24.092 96.2697 24.396 95.9177 24.86C95.5817 25.308 95.1177 25.828 94.5257 26.42C93.9337 26.996 93.2697 27.572 92.5337 28.148C91.8137 28.708 91.0617 29.172 90.2777 29.54C89.5097 29.908 88.7657 30.092 88.0457 30.092C87.1657 30.092 86.4937 29.884 86.0297 29.468C85.5817 29.052 85.2617 28.492 85.0697 27.788C84.8937 27.068 84.7977 26.26 84.7817 25.364C83.9657 26.532 83.1177 27.572 82.2377 28.484C81.3737 29.38 80.5177 30.092 79.6697 30.62C78.8217 31.148 78.0297 31.412 77.2937 31.412ZM85.7897 19.388C84.2217 20.14 82.8137 21.004 81.5657 21.98C80.3177 22.94 79.3257 23.948 78.5897 25.004C77.8697 26.06 77.5097 27.076 77.5097 28.052C77.5097 28.324 77.6377 28.46 77.8937 28.46C78.1977 28.46 78.5977 28.284 79.0937 27.932C79.6057 27.58 80.1577 27.116 80.7497 26.54C81.3417 25.948 81.9337 25.292 82.5257 24.572C83.1177 23.836 83.6697 23.084 84.1817 22.316C84.6937 21.548 85.1017 20.812 85.4057 20.108C85.5177 19.852 85.6457 19.612 85.7897 19.388ZM97.1745 31.244C96.2145 31.244 95.5505 31.052 95.1825 30.668C94.8305 30.3 94.6545 29.788 94.6545 29.132C94.6545 26.348 95.1745 23.444 96.2145 20.42C97.2705 17.38 98.7505 14.332 100.655 11.276C100.975 10.748 101.239 10.436 101.447 10.34C101.655 10.244 101.887 10.196 102.143 10.196C102.511 10.196 102.831 10.324 103.103 10.58C103.391 10.836 103.535 11.172 103.535 11.588C103.535 11.716 103.399 12.068 103.127 12.644C102.855 13.22 102.495 13.956 102.047 14.852C101.615 15.748 101.143 16.764 100.631 17.9C100.119 19.02 99.6145 20.204 99.1185 21.452C98.6385 22.7 98.2225 23.956 97.8705 25.22C98.4145 24.532 99.0305 23.828 99.7185 23.108C100.423 22.372 101.151 21.7 101.903 21.092C102.655 20.468 103.383 19.972 104.087 19.604C104.791 19.22 105.423 19.028 105.983 19.028C106.511 19.028 106.999 19.156 107.447 19.412C107.911 19.668 108.287 20.068 108.575 20.612C108.863 21.156 109.007 21.86 109.007 22.724C109.007 23.668 108.735 24.636 108.191 25.628C107.663 26.62 106.887 27.54 105.863 28.388C104.855 29.236 103.615 29.924 102.143 30.452C100.687 30.98 99.0305 31.244 97.1745 31.244ZM98.1825 28.508C99.4145 28.412 100.527 28.148 101.519 27.716C102.527 27.284 103.391 26.748 104.111 26.108C104.831 25.468 105.383 24.796 105.767 24.092C106.151 23.372 106.343 22.692 106.343 22.052C106.343 21.908 106.303 21.836 106.223 21.836C105.887 21.836 105.463 21.988 104.951 22.292C104.438 22.58 103.878 22.972 103.271 23.468C102.663 23.964 102.047 24.508 101.423 25.1C100.799 25.692 100.207 26.284 99.6465 26.876C99.0865 27.468 98.5985 28.012 98.1825 28.508ZM112.755 31.412C112.243 31.412 111.779 31.268 111.363 30.98C110.947 30.708 110.619 30.348 110.379 29.9C110.139 29.436 110.019 28.94 110.019 28.412C110.019 27.42 110.235 26.452 110.667 25.508C111.115 24.564 111.699 23.668 112.419 22.82C113.139 21.972 113.923 21.196 114.771 20.492C115.635 19.772 116.491 19.156 117.339 18.644C118.203 18.132 118.987 17.732 119.691 17.444C120.411 17.156 120.971 17.012 121.371 17.012C121.835 17.012 122.211 17.116 122.499 17.324C122.803 17.516 122.955 17.82 122.955 18.236C122.955 18.364 122.923 18.468 122.859 18.548C123.067 18.596 123.235 18.716 123.363 18.908C123.491 19.1 123.555 19.388 123.555 19.772C123.555 19.932 123.515 20.348 123.435 21.02C123.355 21.692 123.267 22.508 123.171 23.468C123.091 24.428 123.051 25.428 123.051 26.468C123.051 26.628 123.075 26.772 123.123 26.9C123.171 27.012 123.275 27.068 123.435 27.068C124.075 27.068 124.723 26.94 125.379 26.684C126.051 26.412 126.699 26.084 127.323 25.7C127.963 25.3 128.539 24.908 129.051 24.524C129.579 24.124 130.019 23.796 130.371 23.54C130.739 23.268 130.979 23.132 131.091 23.132C131.635 23.132 131.907 23.404 131.907 23.948C131.907 24.092 131.731 24.396 131.379 24.86C131.043 25.308 130.579 25.828 129.987 26.42C129.395 26.996 128.731 27.572 127.995 28.148C127.275 28.708 126.523 29.172 125.739 29.54C124.971 29.908 124.227 30.092 123.507 30.092C122.627 30.092 121.955 29.884 121.491 29.468C121.043 29.052 120.723 28.492 120.531 27.788C120.355 27.068 120.259 26.26 120.243 25.364C119.427 26.532 118.579 27.572 117.699 28.484C116.835 29.38 115.979 30.092 115.131 30.62C114.283 31.148 113.491 31.412 112.755 31.412ZM121.251 19.388C119.683 20.14 118.275 21.004 117.027 21.98C115.779 22.94 114.787 23.948 114.051 25.004C113.331 26.06 112.971 27.076 112.971 28.052C112.971 28.324 113.099 28.46 113.355 28.46C113.659 28.46 114.059 28.284 114.555 27.932C115.067 27.58 115.619 27.116 116.211 26.54C116.803 25.948 117.395 25.292 117.987 24.572C118.579 23.836 119.131 23.084 119.643 22.316C120.155 21.548 120.563 20.812 120.867 20.108C120.979 19.852 121.107 19.612 121.251 19.388ZM132.635 31.244C131.675 31.244 131.011 31.052 130.643 30.668C130.291 30.3 130.115 29.788 130.115 29.132C130.115 26.348 130.635 23.444 131.675 20.42C132.731 17.38 134.211 14.332 136.115 11.276C136.435 10.748 136.699 10.436 136.907 10.34C137.115 10.244 137.347 10.196 137.603 10.196C137.971 10.196 138.291 10.324 138.563 10.58C138.851 10.836 138.995 11.172 138.995 11.588C138.995 11.716 138.859 12.068 138.587 12.644C138.315 13.22 137.955 13.956 137.507 14.852C137.075 15.748 136.603 16.764 136.091 17.9C135.579 19.02 135.075 20.204 134.579 21.452C134.099 22.7 133.683 23.956 133.331 25.22C133.875 24.532 134.491 23.828 135.179 23.108C135.883 22.372 136.611 21.7 137.363 21.092C138.115 20.468 138.843 19.972 139.547 19.604C140.251 19.22 140.883 19.028 141.443 19.028C141.971 19.028 142.459 19.156 142.907 19.412C143.371 19.668 143.747 20.068 144.035 20.612C144.323 21.156 144.467 21.86 144.467 22.724C144.467 23.668 144.195 24.636 143.651 25.628C143.123 26.62 142.347 27.54 141.323 28.388C140.315 29.236 139.075 29.924 137.603 30.452C136.147 30.98 134.491 31.244 132.635 31.244ZM133.643 28.508C134.875 28.412 135.987 28.148 136.979 27.716C137.987 27.284 138.851 26.748 139.571 26.108C140.291 25.468 140.843 24.796 141.227 24.092C141.611 23.372 141.803 22.692 141.803 22.052C141.803 21.908 141.763 21.836 141.683 21.836C141.347 21.836 140.923 21.988 140.411 22.292C139.899 22.58 139.339 22.972 138.731 23.468C138.123 23.964 137.507 24.508 136.883 25.1C136.259 25.692 135.667 26.284 135.107 26.876C134.547 27.468 134.059 28.012 133.643 28.508ZM148.216 31.412C147.704 31.412 147.24 31.268 146.824 30.98C146.408 30.708 146.08 30.348 145.84 29.9C145.6 29.436 145.48 28.94 145.48 28.412C145.48 27.42 145.696 26.452 146.128 25.508C146.576 24.564 147.16 23.668 147.88 22.82C148.6 21.972 149.384 21.196 150.232 20.492C151.096 19.772 151.952 19.156 152.8 18.644C153.664 18.132 154.448 17.732 155.152 17.444C155.872 17.156 156.432 17.012 156.832 17.012C157.296 17.012 157.672 17.116 157.96 17.324C158.264 17.516 158.416 17.82 158.416 18.236C158.416 18.364 158.384 18.468 158.32 18.548C158.528 18.596 158.696 18.716 158.824 18.908C158.952 19.1 159.016 19.388 159.016 19.772C159.016 19.932 158.976 20.348 158.896 21.02C158.816 21.692 158.728 22.508 158.632 23.468C158.552 24.428 158.512 25.428 158.512 26.468C158.512 26.628 158.536 26.772 158.584 26.9C158.632 27.012 158.736 27.068 158.896 27.068C159.536 27.068 160.184 26.94 160.84 26.684C161.512 26.412 162.16 26.084 162.784 25.7C163.424 25.3 164 24.908 164.512 24.524C165.04 24.124 165.48 23.796 165.832 23.54C166.2 23.268 166.44 23.132 166.552 23.132C167.096 23.132 167.368 23.404 167.368 23.948C167.368 24.092 167.192 24.396 166.84 24.86C166.504 25.308 166.04 25.828 165.448 26.42C164.856 26.996 164.192 27.572 163.456 28.148C162.736 28.708 161.984 29.172 161.2 29.54C160.432 29.908 159.688 30.092 158.968 30.092C158.088 30.092 157.416 29.884 156.952 29.468C156.504 29.052 156.184 28.492 155.992 27.788C155.816 27.068 155.72 26.26 155.704 25.364C154.888 26.532 154.04 27.572 153.16 28.484C152.296 29.38 151.44 30.092 150.592 30.62C149.744 31.148 148.952 31.412 148.216 31.412ZM156.712 19.388C155.144 20.14 153.736 21.004 152.488 21.98C151.24 22.94 150.248 23.948 149.512 25.004C148.792 26.06 148.432 27.076 148.432 28.052C148.432 28.324 148.56 28.46 148.816 28.46C149.12 28.46 149.52 28.284 150.016 27.932C150.528 27.58 151.08 27.116 151.672 26.54C152.264 25.948 152.856 25.292 153.448 24.572C154.04 23.836 154.592 23.084 155.104 22.316C155.616 21.548 156.024 20.812 156.328 20.108C156.44 19.852 156.568 19.612 156.712 19.388Z" fill="black"/>
</svg>
