<svg width="52" height="52" viewBox="0 0 52 52" fill="none" xmlns="http://www.w3.org/2000/svg">
<path d="M31.2049 29.952L35 33.7462L33.7462 35L29.952 31.2049C28.5402 32.3366 26.7842 32.9522 24.9748 32.9496C20.5727 32.9496 17 29.3769 17 24.9748C17 20.5727 20.5727 17 24.9748 17C29.3769 17 32.9496 20.5727 32.9496 24.9748C32.9522 26.7842 32.3366 28.5402 31.2049 29.952ZM29.4274 29.2945C30.5517 28.1379 31.1797 26.5878 31.1774 24.9748C31.1774 21.5483 28.4013 18.7722 24.9748 18.7722C21.5483 18.7722 18.7722 21.5483 18.7722 24.9748C18.7722 28.4013 21.5483 31.1774 24.9748 31.1774C26.5878 31.1797 28.1379 30.5517 29.2945 29.4274L29.4274 29.2945Z" fill="#727272"/>
</svg>
