<svg width="22" height="25" viewBox="0 0 22 25" fill="none" xmlns="http://www.w3.org/2000/svg">
<path d="M17.4541 4.26C16.4952 3.21937 15.9667 1.8832 15.9668 0.5H11.6314V17.0333C11.5986 17.9283 11.2014 18.7761 10.5234 19.398C9.84541 20.0199 8.93974 20.3672 7.99745 20.3667C6.0051 20.3667 4.34949 18.82 4.34949 16.9C4.34949 14.6067 6.67857 12.8867 9.07781 13.5933V9.38C4.23725 8.76667 0 12.34 0 16.9C0 21.34 3.87245 24.5 7.98342 24.5C12.389 24.5 15.9668 21.1 15.9668 16.9V8.51333C17.7249 9.71313 19.8356 10.3569 22 10.3533V6.23333C22 6.23333 19.3622 6.35333 17.4541 4.26Z" fill="white"/>
</svg>
