<svg width="22" height="18" viewBox="0 0 22 18" fill="none" xmlns="http://www.w3.org/2000/svg">
<path d="M20.875 0.883966C20.0044 1.48628 19.0406 1.94695 18.0205 2.24824C17.4729 1.63076 16.7453 1.1931 15.9359 0.994469C15.1266 0.795833 14.2745 0.845799 13.4951 1.13761C12.7156 1.42942 12.0463 1.94899 11.5777 2.62605C11.1091 3.30312 10.8638 4.10501 10.875 4.92327V5.81495C9.27739 5.85558 7.69434 5.50805 6.26683 4.80329C4.83931 4.09854 3.61165 3.05845 2.69318 1.77565C2.69318 1.77565 -0.943182 9.80075 7.23864 13.3675C5.36639 14.614 3.13605 15.239 0.875 15.1508C9.05682 19.6092 19.0568 15.1508 19.0568 4.89652C19.056 4.64815 19.0316 4.40039 18.9841 4.15643C19.9119 3.25895 20.5667 2.12582 20.875 0.883966Z" stroke="white" stroke-width="1.75" stroke-linecap="round" stroke-linejoin="round"/>
</svg>
