<svg width="18" height="14" viewBox="0 0 18 14" fill="none" xmlns="http://www.w3.org/2000/svg">
<path d="M15.3 0C16.0161 0 16.7028 0.276562 17.2092 0.768845C17.7155 1.26113 18 1.92881 18 2.625V11.375C18 12.0712 17.7155 12.7389 17.2092 13.2312C16.7028 13.7234 16.0161 14 15.3 14H2.7C1.98392 14 1.29716 13.7234 0.790812 13.2312C0.284464 12.7389 0 12.0712 0 11.375V2.625C0 1.92881 0.284464 1.26113 0.790812 0.768845C1.29716 0.276562 1.98392 0 2.7 0H15.3ZM16.2 5.25H1.8V11.375C1.80003 11.5893 1.88096 11.7962 2.02744 11.9563C2.17393 12.1165 2.37577 12.2188 2.5947 12.2439L2.7 12.25H15.3C15.5204 12.25 15.7332 12.1713 15.8979 12.0289C16.0627 11.8865 16.1679 11.6902 16.1937 11.4774L16.2 11.375V5.25ZM13.5 7.875C13.7294 7.87525 13.95 7.96064 14.1168 8.11374C14.2836 8.26684 14.384 8.47608 14.3975 8.69872C14.4109 8.92136 14.3364 9.14058 14.1892 9.3116C14.0419 9.48263 13.8331 9.59253 13.6053 9.61888L13.5 9.625H10.8C10.5706 9.62475 10.35 9.53936 10.1832 9.38626C10.0164 9.23316 9.91599 9.02392 9.90254 8.80128C9.8891 8.57864 9.96361 8.35942 10.1108 8.1884C10.2581 8.01737 10.4669 7.90747 10.6947 7.88112L10.8 7.875H13.5ZM15.3 1.75H2.7C2.46131 1.75 2.23239 1.84219 2.0636 2.00628C1.89482 2.17038 1.8 2.39294 1.8 2.625V3.5H16.2V2.625C16.2 2.39294 16.1052 2.17038 15.9364 2.00628C15.7676 1.84219 15.5387 1.75 15.3 1.75Z" fill="#1C1C1C"/>
</svg>
