<svg width="90" height="25" viewBox="0 0 90 25" fill="none" xmlns="http://www.w3.org/2000/svg">
<path d="M3.51 19.918C2.994 19.918 2.628 19.846 2.412 19.702C2.208 19.558 2.106 19.348 2.106 19.072C2.106 18.832 2.19 18.628 2.358 18.46C2.526 18.28 2.898 18.1 3.474 17.92C4.146 17.716 4.782 17.482 5.382 17.218C5.994 16.942 6.492 16.642 6.876 16.318C7.272 15.994 7.47 15.652 7.47 15.292C7.47 15.052 7.386 14.878 7.218 14.77C7.062 14.662 6.876 14.608 6.66 14.608C6.48 14.608 6.216 14.638 5.868 14.698C5.532 14.746 5.16 14.812 4.752 14.896C4.344 14.968 3.948 15.034 3.564 15.094C3.192 15.142 2.874 15.166 2.61 15.166C1.986 15.166 1.524 15.028 1.224 14.752C0.924 14.464 0.774 14.098 0.774 13.654C0.774 13.414 0.9 13.084 1.152 12.664C1.404 12.244 1.74 11.782 2.16 11.278C2.58 10.774 3.048 10.27 3.564 9.766C4.08 9.262 4.602 8.8 5.13 8.38C5.67 7.948 6.18 7.606 6.66 7.354C7.14 7.09 7.548 6.958 7.884 6.958C8.268 6.958 8.574 7.078 8.802 7.318C9.042 7.558 9.162 7.882 9.162 8.29C9.162 8.482 9.144 8.692 9.108 8.92C9.072 9.136 8.982 9.334 8.838 9.514C8.694 9.682 8.472 9.802 8.172 9.874C7.872 9.946 7.464 9.934 6.948 9.838C6.54 10.138 6.114 10.468 5.67 10.828C5.238 11.176 4.83 11.542 4.446 11.926C4.062 12.298 3.744 12.664 3.492 13.024C3.936 12.88 4.44 12.766 5.004 12.682C5.568 12.586 6.138 12.538 6.714 12.538C7.41 12.538 7.974 12.664 8.406 12.916C8.85 13.156 9.174 13.48 9.378 13.888C9.594 14.296 9.702 14.746 9.702 15.238C9.702 15.79 9.522 16.342 9.162 16.894C8.802 17.446 8.322 17.95 7.722 18.406C7.122 18.862 6.456 19.228 5.724 19.504C4.992 19.78 4.254 19.918 3.51 19.918ZM12.9703 19.684C12.5863 19.684 12.2383 19.576 11.9263 19.36C11.6143 19.156 11.3683 18.886 11.1883 18.55C11.0083 18.202 10.9183 17.83 10.9183 17.434C10.9183 16.69 11.0803 15.964 11.4043 15.256C11.7403 14.548 12.1783 13.876 12.7183 13.24C13.2583 12.604 13.8463 12.022 14.4823 11.494C15.1303 10.954 15.7723 10.492 16.4083 10.108C17.0563 9.724 17.6443 9.424 18.1723 9.208C18.7123 8.992 19.1323 8.884 19.4323 8.884C19.7803 8.884 20.0623 8.962 20.2783 9.118C20.5063 9.262 20.6203 9.49 20.6203 9.802C20.6203 9.898 20.5963 9.976 20.5483 10.036C20.7043 10.072 20.8303 10.162 20.9263 10.306C21.0223 10.45 21.0703 10.666 21.0703 10.954C21.0703 11.074 21.0403 11.386 20.9803 11.89C20.9203 12.394 20.8543 13.006 20.7823 13.726C20.7223 14.446 20.6923 15.196 20.6923 15.976C20.6923 16.096 20.7103 16.204 20.7463 16.3C20.7823 16.384 20.8603 16.426 20.9803 16.426C21.4603 16.426 21.9463 16.33 22.4383 16.138C22.9423 15.934 23.4283 15.688 23.8963 15.4C24.3763 15.1 24.8083 14.806 25.1923 14.518C25.5883 14.218 25.9183 13.972 26.1823 13.78C26.4583 13.576 26.6383 13.474 26.7223 13.474C27.1303 13.474 27.3343 13.678 27.3343 14.086C27.3343 14.194 27.2023 14.422 26.9383 14.77C26.6863 15.106 26.3383 15.496 25.8943 15.94C25.4503 16.372 24.9523 16.804 24.4003 17.236C23.8603 17.656 23.2963 18.004 22.7083 18.28C22.1323 18.556 21.5743 18.694 21.0343 18.694C20.3743 18.694 19.8703 18.538 19.5223 18.226C19.1863 17.914 18.9463 17.494 18.8023 16.966C18.6703 16.426 18.5983 15.82 18.5863 15.148C17.9743 16.024 17.3383 16.804 16.6783 17.488C16.0303 18.16 15.3883 18.694 14.7523 19.09C14.1163 19.486 13.5223 19.684 12.9703 19.684ZM19.3423 10.666C18.1663 11.23 17.1103 11.878 16.1743 12.61C15.2383 13.33 14.4943 14.086 13.9423 14.878C13.4023 15.67 13.1323 16.432 13.1323 17.164C13.1323 17.368 13.2283 17.47 13.4203 17.47C13.6483 17.47 13.9483 17.338 14.3203 17.074C14.7043 16.81 15.1183 16.462 15.5623 16.03C16.0063 15.586 16.4503 15.094 16.8943 14.554C17.3383 14.002 17.7523 13.438 18.1363 12.862C18.5203 12.286 18.8263 11.734 19.0543 11.206C19.1383 11.014 19.2343 10.834 19.3423 10.666ZM27.8809 19.558C27.1609 19.558 26.6629 19.414 26.3869 19.126C26.1229 18.85 25.9909 18.466 25.9909 17.974C25.9909 15.886 26.3809 13.708 27.1609 11.44C27.9529 9.16 29.0629 6.874 30.4909 4.582C30.7309 4.186 30.9289 3.952 31.0849 3.88C31.2409 3.808 31.4149 3.772 31.6069 3.772C31.8829 3.772 32.1229 3.868 32.3269 4.06C32.5429 4.252 32.6509 4.504 32.6509 4.816C32.6509 4.912 32.5489 5.176 32.3449 5.608C32.1409 6.04 31.8709 6.592 31.5349 7.264C31.2109 7.936 30.8569 8.698 30.4729 9.55C30.0889 10.39 29.7109 11.278 29.3389 12.214C28.9789 13.15 28.6669 14.092 28.4029 15.04C28.8109 14.524 29.2729 13.996 29.7889 13.456C30.3169 12.904 30.8629 12.4 31.4269 11.944C31.9909 11.476 32.5369 11.104 33.0649 10.828C33.5929 10.54 34.0669 10.396 34.4869 10.396C34.8829 10.396 35.2489 10.492 35.5849 10.684C35.9329 10.876 36.2149 11.176 36.4309 11.584C36.6469 11.992 36.7549 12.52 36.7549 13.168C36.7549 13.876 36.5509 14.602 36.1429 15.346C35.7469 16.09 35.1649 16.78 34.3969 17.416C33.6409 18.052 32.7109 18.568 31.6069 18.964C30.5149 19.36 29.2729 19.558 27.8809 19.558ZM28.6369 17.506C29.5609 17.434 30.3949 17.236 31.1389 16.912C31.8949 16.588 32.5429 16.186 33.0829 15.706C33.6229 15.226 34.0369 14.722 34.3249 14.194C34.6129 13.654 34.7569 13.144 34.7569 12.664C34.7569 12.556 34.7269 12.502 34.6669 12.502C34.4149 12.502 34.0969 12.616 33.7129 12.844C33.3289 13.06 32.9089 13.354 32.4529 13.726C31.9969 14.098 31.5349 14.506 31.0669 14.95C30.5989 15.394 30.1549 15.838 29.7349 16.282C29.3149 16.726 28.9489 17.134 28.6369 17.506ZM39.566 19.684C39.182 19.684 38.834 19.576 38.522 19.36C38.21 19.156 37.964 18.886 37.784 18.55C37.604 18.202 37.514 17.83 37.514 17.434C37.514 16.69 37.676 15.964 38 15.256C38.336 14.548 38.774 13.876 39.314 13.24C39.854 12.604 40.442 12.022 41.078 11.494C41.726 10.954 42.368 10.492 43.004 10.108C43.652 9.724 44.24 9.424 44.768 9.208C45.308 8.992 45.728 8.884 46.028 8.884C46.376 8.884 46.658 8.962 46.874 9.118C47.102 9.262 47.216 9.49 47.216 9.802C47.216 9.898 47.192 9.976 47.144 10.036C47.3 10.072 47.426 10.162 47.522 10.306C47.618 10.45 47.666 10.666 47.666 10.954C47.666 11.074 47.636 11.386 47.576 11.89C47.516 12.394 47.45 13.006 47.378 13.726C47.318 14.446 47.288 15.196 47.288 15.976C47.288 16.096 47.306 16.204 47.342 16.3C47.378 16.384 47.456 16.426 47.576 16.426C48.056 16.426 48.542 16.33 49.034 16.138C49.538 15.934 50.024 15.688 50.492 15.4C50.972 15.1 51.404 14.806 51.788 14.518C52.184 14.218 52.514 13.972 52.778 13.78C53.054 13.576 53.234 13.474 53.318 13.474C53.726 13.474 53.93 13.678 53.93 14.086C53.93 14.194 53.798 14.422 53.534 14.77C53.282 15.106 52.934 15.496 52.49 15.94C52.046 16.372 51.548 16.804 50.996 17.236C50.456 17.656 49.892 18.004 49.304 18.28C48.728 18.556 48.17 18.694 47.63 18.694C46.97 18.694 46.466 18.538 46.118 18.226C45.782 17.914 45.542 17.494 45.398 16.966C45.266 16.426 45.194 15.82 45.182 15.148C44.57 16.024 43.934 16.804 43.274 17.488C42.626 18.16 41.984 18.694 41.348 19.09C40.712 19.486 40.118 19.684 39.566 19.684ZM45.938 10.666C44.762 11.23 43.706 11.878 42.77 12.61C41.834 13.33 41.09 14.086 40.538 14.878C39.998 15.67 39.728 16.432 39.728 17.164C39.728 17.368 39.824 17.47 40.016 17.47C40.244 17.47 40.544 17.338 40.916 17.074C41.3 16.81 41.714 16.462 42.158 16.03C42.602 15.586 43.046 15.094 43.49 14.554C43.934 14.002 44.348 13.438 44.732 12.862C45.116 12.286 45.422 11.734 45.65 11.206C45.734 11.014 45.83 10.834 45.938 10.666ZM54.4766 19.558C53.7566 19.558 53.2586 19.414 52.9826 19.126C52.7186 18.85 52.5866 18.466 52.5866 17.974C52.5866 15.886 52.9766 13.708 53.7566 11.44C54.5486 9.16 55.6586 6.874 57.0866 4.582C57.3266 4.186 57.5246 3.952 57.6806 3.88C57.8366 3.808 58.0106 3.772 58.2026 3.772C58.4786 3.772 58.7186 3.868 58.9226 4.06C59.1386 4.252 59.2466 4.504 59.2466 4.816C59.2466 4.912 59.1446 5.176 58.9406 5.608C58.7366 6.04 58.4666 6.592 58.1306 7.264C57.8066 7.936 57.4526 8.698 57.0686 9.55C56.6846 10.39 56.3066 11.278 55.9346 12.214C55.5746 13.15 55.2626 14.092 54.9986 15.04C55.4066 14.524 55.8686 13.996 56.3846 13.456C56.9126 12.904 57.4586 12.4 58.0226 11.944C58.5866 11.476 59.1326 11.104 59.6606 10.828C60.1886 10.54 60.6626 10.396 61.0826 10.396C61.4786 10.396 61.8446 10.492 62.1806 10.684C62.5286 10.876 62.8106 11.176 63.0266 11.584C63.2426 11.992 63.3506 12.52 63.3506 13.168C63.3506 13.876 63.1466 14.602 62.7386 15.346C62.3426 16.09 61.7606 16.78 60.9926 17.416C60.2366 18.052 59.3066 18.568 58.2026 18.964C57.1106 19.36 55.8686 19.558 54.4766 19.558ZM55.2326 17.506C56.1566 17.434 56.9906 17.236 57.7346 16.912C58.4906 16.588 59.1386 16.186 59.6786 15.706C60.2186 15.226 60.6326 14.722 60.9206 14.194C61.2086 13.654 61.3526 13.144 61.3526 12.664C61.3526 12.556 61.3226 12.502 61.2626 12.502C61.0106 12.502 60.6926 12.616 60.3086 12.844C59.9246 13.06 59.5046 13.354 59.0486 13.726C58.5926 14.098 58.1306 14.506 57.6626 14.95C57.1946 15.394 56.7506 15.838 56.3306 16.282C55.9106 16.726 55.5446 17.134 55.2326 17.506ZM66.1617 19.684C65.7777 19.684 65.4297 19.576 65.1177 19.36C64.8057 19.156 64.5597 18.886 64.3797 18.55C64.1997 18.202 64.1097 17.83 64.1097 17.434C64.1097 16.69 64.2717 15.964 64.5957 15.256C64.9317 14.548 65.3697 13.876 65.9097 13.24C66.4497 12.604 67.0377 12.022 67.6737 11.494C68.3217 10.954 68.9637 10.492 69.5997 10.108C70.2477 9.724 70.8357 9.424 71.3637 9.208C71.9037 8.992 72.3237 8.884 72.6237 8.884C72.9717 8.884 73.2537 8.962 73.4697 9.118C73.6977 9.262 73.8117 9.49 73.8117 9.802C73.8117 9.898 73.7877 9.976 73.7397 10.036C73.8957 10.072 74.0217 10.162 74.1177 10.306C74.2137 10.45 74.2617 10.666 74.2617 10.954C74.2617 11.074 74.2317 11.386 74.1717 11.89C74.1117 12.394 74.0457 13.006 73.9737 13.726C73.9137 14.446 73.8837 15.196 73.8837 15.976C73.8837 16.096 73.9017 16.204 73.9377 16.3C73.9737 16.384 74.0517 16.426 74.1717 16.426C74.6517 16.426 75.1377 16.33 75.6297 16.138C76.1337 15.934 76.6197 15.688 77.0877 15.4C77.5677 15.1 77.9997 14.806 78.3837 14.518C78.7797 14.218 79.1097 13.972 79.3737 13.78C79.6497 13.576 79.8297 13.474 79.9137 13.474C80.3217 13.474 80.5257 13.678 80.5257 14.086C80.5257 14.194 80.3937 14.422 80.1297 14.77C79.8777 15.106 79.5297 15.496 79.0857 15.94C78.6417 16.372 78.1437 16.804 77.5917 17.236C77.0517 17.656 76.4877 18.004 75.8997 18.28C75.3237 18.556 74.7657 18.694 74.2257 18.694C73.5657 18.694 73.0617 18.538 72.7137 18.226C72.3777 17.914 72.1377 17.494 71.9937 16.966C71.8617 16.426 71.7897 15.82 71.7777 15.148C71.1657 16.024 70.5297 16.804 69.8697 17.488C69.2217 18.16 68.5797 18.694 67.9437 19.09C67.3077 19.486 66.7137 19.684 66.1617 19.684ZM72.5337 10.666C71.3577 11.23 70.3017 11.878 69.3657 12.61C68.4297 13.33 67.6857 14.086 67.1337 14.878C66.5937 15.67 66.3237 16.432 66.3237 17.164C66.3237 17.368 66.4197 17.47 66.6117 17.47C66.8397 17.47 67.1397 17.338 67.5117 17.074C67.8957 16.81 68.3097 16.462 68.7537 16.03C69.1977 15.586 69.6417 15.094 70.0857 14.554C70.5297 14.002 70.9437 13.438 71.3277 12.862C71.7117 12.286 72.0177 11.734 72.2457 11.206C72.3297 11.014 72.4257 10.834 72.5337 10.666Z" fill="black"/>
</svg>
