<svg width="60" height="60" viewBox="0 0 60 60" fill="none" xmlns="http://www.w3.org/2000/svg">
<g filter="url(#filter0_d_5850_8763)">
<rect x="9" y="9" width="40" height="40" rx="20" fill="white" fill-opacity="0.5" shape-rendering="crispEdges"/>
<path d="M34.3333 38C33.5926 38 32.963 37.7375 32.4444 37.2125C31.9259 36.6875 31.6667 36.05 31.6667 35.3C31.6667 35.21 31.6889 35 31.7333 34.67L25.4889 30.98C25.2519 31.205 24.9778 31.3814 24.6667 31.5092C24.3556 31.637 24.0222 31.7006 23.6667 31.7C22.9259 31.7 22.2963 31.4375 21.7778 30.9125C21.2593 30.3875 21 29.75 21 29C21 28.25 21.2593 27.6125 21.7778 27.0875C22.2963 26.5625 22.9259 26.3 23.6667 26.3C24.0222 26.3 24.3556 26.3639 24.6667 26.4917C24.9778 26.6195 25.2519 26.7956 25.4889 27.02L31.7333 23.33C31.7037 23.225 31.6853 23.1239 31.6782 23.0267C31.6711 22.9295 31.6673 22.8206 31.6667 22.7C31.6667 21.95 31.9259 21.3125 32.4444 20.7875C32.963 20.2625 33.5926 20 34.3333 20C35.0741 20 35.7037 20.2625 36.2222 20.7875C36.7407 21.3125 37 21.95 37 22.7C37 23.45 36.7407 24.0875 36.2222 24.6125C35.7037 25.1375 35.0741 25.4 34.3333 25.4C33.9778 25.4 33.6444 25.3361 33.3333 25.2083C33.0222 25.0805 32.7481 24.9044 32.5111 24.68L26.2667 28.37C26.2963 28.475 26.315 28.5764 26.3227 28.6742C26.3304 28.772 26.3339 28.8806 26.3333 29C26.3327 29.1194 26.3292 29.2283 26.3227 29.3267C26.3161 29.4251 26.2975 29.5262 26.2667 29.63L32.5111 33.32C32.7481 33.095 33.0222 32.9189 33.3333 32.7917C33.6444 32.6645 33.9778 32.6006 34.3333 32.6C35.0741 32.6 35.7037 32.8625 36.2222 33.3875C36.7407 33.9125 37 34.55 37 35.3C37 36.05 36.7407 36.6875 36.2222 37.2125C35.7037 37.7375 35.0741 38 34.3333 38ZM34.3333 36.2C34.5852 36.2 34.7964 36.1139 34.9671 35.9417C35.1378 35.7695 35.2228 35.5556 35.2222 35.3C35.2216 35.0444 35.1363 34.8308 34.9662 34.6592C34.7961 34.4876 34.5852 34.4012 34.3333 34.4C34.0815 34.3988 33.8705 34.4852 33.7004 34.6592C33.5304 34.8332 33.445 35.0468 33.4444 35.3C33.4439 35.5532 33.5292 35.7671 33.7004 35.9417C33.8717 36.1163 34.0827 36.2024 34.3333 36.2ZM23.6667 29.9C23.9185 29.9 24.1298 29.8136 24.3004 29.6408C24.4711 29.468 24.5561 29.2544 24.5556 29C24.555 28.7456 24.4696 28.532 24.2996 28.3592C24.1295 28.1864 23.9185 28.1 23.6667 28.1C23.4148 28.1 23.2039 28.1864 23.0338 28.3592C22.8637 28.532 22.7784 28.7456 22.7778 29C22.7772 29.2544 22.8625 29.4683 23.0338 29.6417C23.205 29.8151 23.416 29.9012 23.6667 29.9ZM34.3333 23.6C34.5852 23.6 34.7964 23.5136 34.9671 23.3408C35.1378 23.168 35.2228 22.9544 35.2222 22.7C35.2216 22.4456 35.1363 22.232 34.9662 22.0592C34.7961 21.8864 34.5852 21.8 34.3333 21.8C34.0815 21.8 33.8705 21.8864 33.7004 22.0592C33.5304 22.232 33.445 22.4456 33.4444 22.7C33.4439 22.9544 33.5292 23.1683 33.7004 23.3417C33.8717 23.5151 34.0827 23.6012 34.3333 23.6Z" fill="#1C1C1C"/>
</g>
<defs>
<filter id="filter0_d_5850_8763" x="0" y="0" width="60" height="60" filterUnits="userSpaceOnUse" color-interpolation-filters="sRGB">
<feFlood flood-opacity="0" result="BackgroundImageFix"/>
<feColorMatrix in="SourceAlpha" type="matrix" values="0 0 0 0 0 0 0 0 0 0 0 0 0 0 0 0 0 0 127 0" result="hardAlpha"/>
<feOffset dx="1" dy="1"/>
<feGaussianBlur stdDeviation="5"/>
<feComposite in2="hardAlpha" operator="out"/>
<feColorMatrix type="matrix" values="0 0 0 0 0 0 0 0 0 0 0 0 0 0 0 0 0 0 0.1 0"/>
<feBlend mode="normal" in2="BackgroundImageFix" result="effect1_dropShadow_5850_8763"/>
<feBlend mode="normal" in="SourceGraphic" in2="effect1_dropShadow_5850_8763" result="shape"/>
</filter>
</defs>
</svg>
