<svg width="18" height="19" viewBox="0 0 18 19" fill="none" xmlns="http://www.w3.org/2000/svg">
<path d="M4.5 2.3C4.5 1.82261 4.68964 1.36477 5.02721 1.02721C5.36477 0.689642 5.82261 0.5 6.3 0.5H11.7C12.1774 0.5 12.6352 0.689642 12.9728 1.02721C13.3104 1.36477 13.5 1.82261 13.5 2.3V4.1H17.1C17.3387 4.1 17.5676 4.19482 17.7364 4.3636C17.9052 4.53239 18 4.7613 18 5C18 5.23869 17.9052 5.46761 17.7364 5.6364C17.5676 5.80518 17.3387 5.9 17.1 5.9H16.1379L15.3576 16.8278C15.3253 17.2819 15.1221 17.7069 14.7889 18.0172C14.4557 18.3275 14.0174 18.5 13.5621 18.5H4.437C3.98173 18.5 3.54336 18.3275 3.2102 18.0172C2.87703 17.7069 2.67382 17.2819 2.6415 16.8278L1.863 5.9H0.9C0.661305 5.9 0.432387 5.80518 0.263604 5.6364C0.0948211 5.46761 0 5.23869 0 5C0 4.7613 0.0948211 4.53239 0.263604 4.3636C0.432387 4.19482 0.661305 4.1 0.9 4.1H4.5V2.3ZM6.3 4.1H11.7V2.3H6.3V4.1ZM3.6666 5.9L4.4379 16.7H13.563L14.3343 5.9H3.6666ZM7.2 7.7C7.43869 7.7 7.66761 7.79482 7.8364 7.9636C8.00518 8.13239 8.1 8.3613 8.1 8.6V14C8.1 14.2387 8.00518 14.4676 7.8364 14.6364C7.66761 14.8052 7.43869 14.9 7.2 14.9C6.96131 14.9 6.73239 14.8052 6.5636 14.6364C6.39482 14.4676 6.3 14.2387 6.3 14V8.6C6.3 8.3613 6.39482 8.13239 6.5636 7.9636C6.73239 7.79482 6.96131 7.7 7.2 7.7ZM10.8 7.7C11.0387 7.7 11.2676 7.79482 11.4364 7.9636C11.6052 8.13239 11.7 8.3613 11.7 8.6V14C11.7 14.2387 11.6052 14.4676 11.4364 14.6364C11.2676 14.8052 11.0387 14.9 10.8 14.9C10.5613 14.9 10.3324 14.8052 10.1636 14.6364C9.99482 14.4676 9.9 14.2387 9.9 14V8.6C9.9 8.3613 9.99482 8.13239 10.1636 7.9636C10.3324 7.79482 10.5613 7.7 10.8 7.7Z" fill="black"/>
</svg>
