<svg width="35" height="16" viewBox="0 0 35 16" fill="none" xmlns="http://www.w3.org/2000/svg">
<path d="M6.39511 2.06279C5.98495 2.60317 5.32857 3.02953 4.67225 2.96857C4.59022 2.23792 4.91151 1.46145 5.28755 0.981886C5.69771 0.426288 6.41562 0.0304437 6.99674 0C7.0651 0.761169 6.79843 1.50712 6.39511 2.06279ZM6.98998 3.11325C6.03964 3.05236 5.2261 3.71451 4.77485 3.71451C4.31685 3.71451 3.62628 3.14369 2.87426 3.15892C1.89665 3.17414 0.987329 3.79062 0.488237 4.77259C-0.537292 6.73643 0.221635 9.64419 1.21292 11.2426C1.69834 12.0342 2.27946 12.902 3.04515 12.8715C3.7699 12.8411 4.05701 12.3464 4.93215 12.3464C5.81406 12.3464 6.06705 12.8715 6.83275 12.8563C7.62579 12.8411 8.12488 12.0648 8.6103 11.2731C9.16401 10.3749 9.38967 9.49951 9.40334 9.45384C9.38967 9.43862 7.87195 8.79169 7.85828 6.84299C7.84461 5.2141 9.0547 4.4377 9.10939 4.39204C8.42566 3.26547 7.35918 3.14369 6.98998 3.11325ZM12.4799 0.905777V12.7727H14.1344V8.71558H16.4247C18.5167 8.71558 19.9866 7.11713 19.9866 4.80311C19.9866 2.48915 18.544 0.905853 16.4794 0.905853L12.4799 0.905777ZM14.1344 2.45863H16.0418C17.4776 2.45863 18.2979 3.31113 18.2979 4.81064C18.2979 6.31015 17.4776 7.17033 16.035 7.17033H14.1344V2.45863ZM23.0084 12.8639C24.0476 12.8639 25.0115 12.2779 25.4491 11.3492H25.4833V12.7726H27.0147V6.86582C27.0147 5.15321 25.7841 4.04947 23.8903 4.04947C22.1332 4.04947 20.8343 5.16843 20.7864 6.70599H22.2769C22.3999 5.97526 23.0083 5.4957 23.8424 5.4957C24.8543 5.4957 25.4217 6.02093 25.4217 6.98767V7.64221L23.357 7.77921C21.4359 7.90859 20.3968 8.784 20.3968 10.3064C20.3968 11.844 21.4701 12.8639 23.0084 12.8639ZM23.4527 11.4557C22.5709 11.4557 22.0102 10.9839 22.0102 10.2607C22.0102 9.5148 22.5503 9.0809 23.5827 9.01241L25.4217 8.88302V9.55278C25.4217 10.6641 24.574 11.4557 23.4528 11.4557M29.0589 16C30.6724 16 31.4313 15.315 32.0944 13.2369L35 4.16363H33.3181L31.3697 11.1741H31.3355L29.3871 4.16363H27.6574L30.4604 12.803L30.31 13.3283C30.0571 14.2188 29.6468 14.5614 28.9153 14.5614C28.7854 14.5614 28.5325 14.5462 28.4299 14.5309V15.9543C28.5256 15.9848 28.9358 16 29.0589 16" fill="black"/>
</svg>
