<svg width="20" height="16" viewBox="0 0 20 16" fill="none" xmlns="http://www.w3.org/2000/svg">
<path d="M3.63984 15.9643V14.9024C3.63984 14.4953 3.39945 14.2299 2.9874 14.2299C2.78142 14.2299 2.55823 14.3007 2.4037 14.5308C2.28358 14.3361 2.11193 14.2299 1.85441 14.2299C1.68267 14.2299 1.5111 14.2829 1.3737 14.4776V14.2653H1.01318V15.9643H1.3737V15.0263C1.3737 14.7255 1.52822 14.5838 1.76862 14.5838C2.00886 14.5838 2.12913 14.7431 2.12913 15.0263V15.9643H2.48964V15.0263C2.48964 14.7255 2.66122 14.5838 2.88441 14.5838C3.1248 14.5838 3.24492 14.7431 3.24492 15.0263V15.9643H3.63984ZM8.97879 14.2653H8.39517V13.752H8.03466V14.2653H7.70848V14.6015H8.03458V15.3803C8.03458 15.7697 8.18911 15.9997 8.60115 15.9997C8.75568 15.9997 8.92726 15.9467 9.04753 15.8759L8.94446 15.5573C8.84147 15.6281 8.72135 15.6458 8.63549 15.6458C8.46383 15.6458 8.39517 15.5396 8.39517 15.3626V14.6015H8.97879V14.2653ZM12.0346 14.2298C11.8286 14.2298 11.6913 14.3361 11.6055 14.4776V14.2653H11.2449V15.9643H11.6055V15.0086C11.6055 14.7255 11.7256 14.5662 11.9488 14.5662C12.0174 14.5662 12.1033 14.5839 12.172 14.6015L12.2749 14.2476C12.2063 14.2299 12.1033 14.2299 12.0346 14.2299M7.41662 14.4069C7.24489 14.283 7.00458 14.2299 6.74706 14.2299C6.33509 14.2299 6.06044 14.4423 6.06044 14.7786C6.06044 15.0618 6.26642 15.2211 6.62694 15.2742L6.79859 15.2919C6.98745 15.3273 7.09044 15.3804 7.09044 15.4689C7.09044 15.5927 6.95312 15.6813 6.71273 15.6813C6.47233 15.6813 6.28355 15.5927 6.16335 15.5043L5.9917 15.7875C6.18056 15.929 6.43808 15.9998 6.69552 15.9998C7.17623 15.9998 7.45096 15.7698 7.45096 15.4512C7.45096 15.1503 7.22777 14.991 6.88438 14.9379L6.71273 14.9202C6.5582 14.9024 6.43808 14.8671 6.43808 14.7609C6.43808 14.637 6.5582 14.5662 6.74706 14.5662C6.95312 14.5662 7.1591 14.6547 7.2621 14.7078L7.41662 14.4069ZM16.996 14.2299C16.79 14.2299 16.6526 14.3361 16.5668 14.4777V14.2653H16.2063V15.9644H16.5668V15.0087C16.5668 14.7255 16.687 14.5662 16.9101 14.5662C16.9788 14.5662 17.0647 14.584 17.1333 14.6016L17.2363 14.2477C17.1677 14.2299 17.0647 14.2299 16.996 14.2299ZM12.3951 15.1149C12.3951 15.6281 12.7384 15.9998 13.2707 15.9998C13.511 15.9998 13.6827 15.9468 13.8543 15.8052L13.6827 15.5043C13.5453 15.6105 13.408 15.6635 13.2535 15.6635C12.9616 15.6635 12.7557 15.4512 12.7557 15.1149C12.7557 14.7963 12.9616 14.5839 13.2535 14.5662C13.408 14.5662 13.5453 14.6193 13.6827 14.7255L13.8543 14.4247C13.6827 14.283 13.511 14.2299 13.2707 14.2299C12.7384 14.2299 12.3951 14.6016 12.3951 15.1149ZM15.7256 15.1149V14.2653H15.3651V14.4777C15.2449 14.3185 15.0733 14.2299 14.8501 14.2299C14.3866 14.2299 14.0261 14.6016 14.0261 15.1149C14.0261 15.6281 14.3866 15.9998 14.8501 15.9998C15.0904 15.9998 15.2621 15.9114 15.3651 15.7521V15.9644H15.7256V15.1149ZM14.4037 15.1149C14.4037 14.814 14.5925 14.5662 14.9015 14.5662C15.1934 14.5662 15.3994 14.7963 15.3994 15.1149C15.3994 15.4158 15.1934 15.6635 14.9015 15.6635C14.5925 15.6458 14.4037 15.4158 14.4037 15.1149ZM10.0947 14.2299C9.61403 14.2299 9.27065 14.5839 9.27065 15.1149C9.27065 15.6459 9.61395 15.9998 10.1119 15.9998C10.3522 15.9998 10.5926 15.929 10.7814 15.7698L10.6097 15.5043C10.4724 15.6105 10.3007 15.6813 10.1291 15.6813C9.90588 15.6813 9.68269 15.5751 9.63116 15.2741H10.8501V15.1326C10.8673 14.5839 10.5583 14.2299 10.0947 14.2299ZM10.0947 14.5485C10.3178 14.5485 10.4724 14.6902 10.5066 14.9557H9.64828C9.68261 14.7255 9.83714 14.5485 10.0947 14.5485ZM19.0388 15.1149V13.5928H18.6783V14.4777C18.5581 14.3185 18.3865 14.2299 18.1633 14.2299C17.6998 14.2299 17.3392 14.6016 17.3392 15.1149C17.3392 15.6281 17.6998 15.9998 18.1633 15.9998C18.4037 15.9998 18.5753 15.9114 18.6783 15.7521V15.9644H19.0388V15.1149ZM17.717 15.1149C17.717 14.814 17.9057 14.5662 18.2148 14.5662C18.5067 14.5662 18.7126 14.7963 18.7126 15.1149C18.7126 15.4158 18.5067 15.6635 18.2148 15.6635C17.9057 15.6458 17.717 15.4158 17.717 15.1149ZM5.66544 15.1149V14.2653H5.30493V14.4777C5.18473 14.3185 5.01308 14.2299 4.78989 14.2299C4.32638 14.2299 3.96587 14.6016 3.96587 15.1149C3.96587 15.6281 4.32638 15.9998 4.78989 15.9998C5.03028 15.9998 5.20193 15.9114 5.30493 15.7521V15.9644H5.66544V15.1149ZM4.32638 15.1149C4.32638 14.814 4.51524 14.5662 4.82422 14.5662C5.11607 14.5662 5.32213 14.7963 5.32213 15.1149C5.32213 15.4158 5.11607 15.6635 4.82422 15.6635C4.51524 15.6458 4.32638 15.4158 4.32638 15.1149Z" fill="black"/>
<path d="M7.2959 1.36328H12.7036V11.381H7.2959V1.36328Z" fill="#FF5F00"/>
<path d="M7.63951 6.37168C7.63951 4.33631 8.56651 2.53097 9.99136 1.3628C8.94423 0.513256 7.62238 0 6.18033 0C2.7639 0 0 2.84951 0 6.37168C0 9.89384 2.7639 12.7434 6.18025 12.7434C7.6223 12.7434 8.94415 12.2301 9.99136 11.3805C8.56651 10.23 7.63951 8.40704 7.63951 6.37168Z" fill="#EB001B"/>
<path d="M20.0002 6.37168C20.0002 9.89376 17.2362 12.7434 13.8199 12.7434C12.3778 12.7434 11.056 12.2301 10.0088 11.3805C11.4508 10.2124 12.3607 8.40704 12.3607 6.37168C12.3607 4.33631 11.4336 2.53097 10.0088 1.3628C11.0559 0.513256 12.3778 0 13.8199 0C17.2362 0 20.0002 2.86725 20.0002 6.37168Z" fill="#F79E1B"/>
</svg>
