<svg width="14" height="16" viewBox="0 0 14 16" fill="none" xmlns="http://www.w3.org/2000/svg">
<path d="M11.92 1.20645C11.1551 0.362027 9.77235 8.4808e-09 8.00339 8.4808e-09H2.86938C2.69435 -2.61448e-05 2.52505 0.0604377 2.39195 0.170515C2.25884 0.280593 2.17065 0.433059 2.14325 0.600489L0.00554738 13.7314C-0.0369432 13.9904 0.170075 14.2248 0.441049 14.2248H3.61061L4.40662 9.33486L4.38192 9.48798C4.43863 9.14233 4.74385 8.88739 5.1053 8.88739H6.61147C9.57033 8.88739 11.8872 7.72341 12.5639 4.35628C12.584 4.2567 12.6014 4.15977 12.6165 4.06508C12.5311 4.02127 12.5311 4.02127 12.6165 4.06508C12.818 2.82055 12.6151 1.97342 11.92 1.20645Z" fill="#27346A"/>
<path d="M5.61941 3.61676C5.70604 3.57673 5.80083 3.55602 5.89681 3.55615H9.92178C10.3984 3.55615 10.843 3.58619 11.2492 3.64951C11.3629 3.66708 11.476 3.68804 11.5883 3.71236C11.7475 3.74639 11.9049 3.78804 12.0599 3.83714C12.2596 3.90174 12.4456 3.97698 12.6165 4.06508C12.818 2.82008 12.6151 1.97342 11.92 1.20645C11.1547 0.362027 9.77235 0 8.00339 0H2.86894C2.50744 0 2.19991 0.254891 2.14325 0.600489L0.00554768 13.731C-0.0369429 13.9903 0.170075 14.2245 0.44061 14.2245H3.61061L5.26209 4.08145C5.27834 3.98176 5.31935 3.88738 5.38159 3.80644C5.44384 3.72549 5.52545 3.6604 5.61941 3.61676Z" fill="#27346A"/>
<path d="M12.5638 4.35566C11.887 7.72231 9.57024 8.88676 6.61132 8.88676H5.10472C4.74327 8.88676 4.43799 9.14171 4.38183 9.48736L3.39153 15.5675C3.35453 15.7941 3.53548 15.9994 3.77219 15.9994H6.44405C6.5971 15.9994 6.74512 15.9465 6.86148 15.8502C6.97784 15.7539 7.05491 15.6205 7.07883 15.4741L7.10485 15.3423L7.60843 12.2512L7.64087 12.0804C7.66479 11.934 7.74185 11.8007 7.8582 11.7044C7.97455 11.6081 8.12255 11.5551 8.27559 11.5551H8.67547C11.2637 11.5551 13.2904 10.5367 13.8826 7.59136C14.1298 6.3605 14.0019 5.33285 13.348 4.61103C13.1496 4.3924 12.9033 4.21184 12.6163 4.06445C12.6008 4.15963 12.5839 4.25607 12.5638 4.35566Z" fill="#2790C3"/>
<path d="M11.9086 3.79213C11.8031 3.76229 11.6966 3.73586 11.5893 3.7129C11.4769 3.68897 11.3638 3.66816 11.2502 3.65048C10.8435 3.58674 10.3992 3.55664 9.92218 3.55664H5.89771C5.80167 3.55649 5.70684 3.57737 5.62031 3.61773C5.52622 3.66122 5.4445 3.72626 5.38223 3.80724C5.31996 3.88821 5.27901 3.98267 5.26293 4.08243L4.40752 9.3354L4.38281 9.48853C4.43908 9.14288 4.74431 8.88794 5.10581 8.88794H6.61242C9.57128 8.88794 11.8881 7.72396 12.5648 4.35683C12.585 4.25725 12.6019 4.16075 12.6174 4.06563C12.4461 3.97808 12.2605 3.90224 12.0608 3.83812C12.0104 3.82193 11.9597 3.8066 11.9087 3.79213" fill="#1F264F"/>
</svg>
