<svg width="32" height="16" viewBox="0 0 32 16" fill="none" xmlns="http://www.w3.org/2000/svg">
<path d="M12.1496 0.204988L7.96 11.4313H5.22675L3.165 2.47165C3.04 1.92113 2.93138 1.71853 2.551 1.48574C1.92925 1.10637 0.9025 0.751575 0 0.530862L0.060875 0.204988H4.46138C5.02138 0.204988 5.52562 0.623809 5.65387 1.34899L6.74325 7.84584L9.43275 0.204988H12.1496ZM15.8446 0.204988L13.7067 11.4313H11.1208L13.2589 0.204988H15.8446ZM22.8591 7.76595C22.8699 4.80359 19.2124 4.63918 19.2362 3.31561C19.245 2.91321 19.5863 2.48485 20.3333 2.37533C20.7033 2.32156 21.7255 2.27873 22.8834 2.87797L23.3364 0.495902C22.7142 0.243177 21.9136 0 20.9177 0C18.3615 0 16.5634 1.52505 16.549 3.71056C16.5322 5.32716 17.8334 6.22812 18.8119 6.76656C19.8197 7.31638 20.1578 7.66977 20.1531 8.16118C20.1459 8.91444 19.3481 9.2479 18.6065 9.26025C17.306 9.28342 16.5521 8.86544 15.9508 8.5508L15.4814 11.0118C16.0864 11.3232 17.2014 11.5937 18.3563 11.6075C21.0738 11.6075 22.8511 10.0999 22.8591 7.76595ZM29.6091 11.4314H32L29.9112 0.204988H27.7054C27.2079 0.204988 26.7897 0.529318 26.6042 1.02789L22.7243 11.4313H25.4396L25.9783 9.75433H29.2957L29.6091 11.4314ZM26.7229 7.45397L28.0844 3.23811L28.8665 7.45397H26.7229ZM19.1541 14.5216H18.1034V15.6199H19.2786V15.9502H17.7494V12.903H19.2184V13.2332H18.1034V14.196H19.154L19.1541 14.5216ZM19.8215 12.7404H20.1755V15.95H19.8215V12.7404ZM21.0688 14.9283C21.0767 15.4665 21.3787 15.6879 21.7367 15.6879C21.9905 15.6879 22.1474 15.6382 22.2764 15.575L22.3406 15.8599C22.2159 15.9231 21.9986 15.9999 21.6885 15.9999C21.089 15.9999 20.7309 15.5524 20.7309 14.8922C20.7309 14.2323 21.0767 13.7168 21.6444 13.7168C22.2844 13.7168 22.4494 14.3409 22.4494 14.7431C22.4494 14.8244 22.4452 14.8831 22.4371 14.9284L21.0688 14.9283ZM22.1071 14.6436C22.1112 14.3951 22.0146 14.0016 21.6161 14.0016C21.2539 14.0016 21.1009 14.3678 21.0726 14.6436H22.1071ZM24.3764 15.8732C24.2839 15.9231 24.0785 16 23.817 16C23.2294 16 22.847 15.5524 22.847 14.8832C22.847 14.2096 23.2574 13.7169 23.8934 13.7169C24.1026 13.7169 24.2878 13.7755 24.3844 13.8344L24.3041 14.1373C24.2192 14.0876 24.0865 14.0331 23.8934 14.0331C23.4465 14.0331 23.2052 14.4084 23.2052 14.8608C23.2052 15.3669 23.495 15.6789 23.8814 15.6789C24.0826 15.6789 24.2154 15.6247 24.316 15.575L24.3764 15.8732ZM25.3699 13.2376V13.762H25.8769V14.0647H25.3699V15.2448C25.3699 15.5163 25.4384 15.6698 25.6355 15.6698C25.732 15.6698 25.7885 15.6609 25.8409 15.6425L25.857 15.9458C25.7885 15.9728 25.6799 15.9999 25.543 15.9999C25.3779 15.9999 25.245 15.9365 25.1606 15.8328C25.064 15.7105 25.0238 15.5163 25.0238 15.2585V14.0647H24.7218V13.762H25.0238V13.3551L25.3699 13.2376ZM26.3715 14.4448C26.3715 14.187 26.3673 13.9656 26.3554 13.762H26.6654L26.6816 14.1958H26.6934C26.7821 13.9022 26.9993 13.7168 27.2366 13.7168C27.273 13.7168 27.3013 13.7214 27.3335 13.7258V14.1012C27.2973 14.0919 27.2611 14.0919 27.2125 14.0919C26.9632 14.0919 26.7859 14.2999 26.7377 14.5985C26.7294 14.6598 26.7254 14.7218 26.7256 14.7838V15.9503H26.3715V14.4448ZM29.5104 14.8379C29.5104 15.6472 29.0071 15.9999 28.5404 15.9999C28.017 15.9999 27.6066 15.5657 27.6066 14.8743C27.6066 14.1463 28.0372 13.7169 28.5726 13.7169C29.132 13.7169 29.5104 14.1731 29.5104 14.8379ZM27.9688 14.8608C27.9688 15.34 28.2103 15.7018 28.5564 15.7018C28.8946 15.7018 29.148 15.3443 29.148 14.8516C29.148 14.481 28.983 14.0151 28.5644 14.0151C28.15 14.0151 27.9688 14.4494 27.9688 14.8608ZM30.0531 14.3543C30.0531 14.1239 30.0489 13.943 30.0369 13.7623H30.3509L30.371 14.1239H30.379C30.4756 13.9204 30.701 13.7171 31.023 13.7171C31.2925 13.7171 31.7113 13.8979 31.7113 14.6481V15.9503H31.3571V14.6889C31.3571 14.3365 31.2404 14.0424 30.9064 14.0424C30.6769 14.0424 30.4956 14.2278 30.4315 14.4493C30.4152 14.4991 30.4072 14.5668 30.4072 14.6347V15.9503H30.0531V14.3543Z" fill="#1A1F71"/>
</svg>
